<svg width="60" height="60" viewBox="0 0 60 60" fill="none" xmlns="http://www.w3.org/2000/svg">
<path d="M52.8474 46.7501C54.6718 43.886 55.3748 40.4494 54.8217 37.099C54.2687 33.7486 52.4985 30.7202 49.8504 28.5944C47.2024 26.4686 43.8629 25.395 40.4722 25.5794C37.0814 25.7639 33.8781 27.1933 31.4762 29.5937C29.0744 31.9942 27.643 35.1967 27.4566 38.5873C27.2702 41.9779 28.3418 45.3181 30.466 47.9674C32.5902 50.6166 35.6176 52.3887 38.9676 52.9437C42.3177 53.4987 45.7548 52.7977 48.6199 50.9751C48.7401 50.899 48.8827 50.8662 49.024 50.8821C49.1654 50.898 49.2971 50.9617 49.3974 51.0626L55.7324 57.3976C56.2039 57.853 56.8354 58.1049 57.4909 58.0993C58.1464 58.0936 58.7734 57.8306 59.2369 57.3671C59.7005 56.9036 59.9634 56.2766 59.9691 55.6211C59.9748 54.9656 59.7228 54.3341 59.2674 53.8626L52.9324 47.5251C52.8325 47.4246 52.7697 47.2933 52.7542 47.1524C52.7388 47.0116 52.7716 46.8698 52.8474 46.7501ZM49.4424 42.3576C48.6775 44.3851 47.1808 46.0526 45.2474 47.0314C43.314 48.0101 41.084 48.2291 38.9972 47.6452C36.9103 47.0612 35.1178 45.7167 33.9731 43.8766C32.8285 42.0366 32.4146 39.8345 32.8131 37.7044C33.2116 35.5743 34.3935 33.6708 36.126 32.369C37.8585 31.0672 40.0157 30.4616 42.1726 30.6715C44.3294 30.8815 46.3294 31.8918 47.7782 33.5033C49.2271 35.1148 50.0197 37.2106 49.9999 39.3776C49.9914 40.3952 49.8026 41.4033 49.4424 42.3551V42.3576Z"/>
<path d="M27.5 22.5C27.5 22.0027 27.3025 21.5258 26.9508 21.1742C26.5992 20.8225 26.1223 20.625 25.625 20.625H13.125C12.6277 20.625 12.1508 20.8225 11.7992 21.1742C11.4475 21.5258 11.25 22.0027 11.25 22.5C11.25 22.9973 11.4475 23.4742 11.7992 23.8258C12.1508 24.1775 12.6277 24.375 13.125 24.375H25.625C26.1223 24.375 26.5992 24.1775 26.9508 23.8258C27.3025 23.4742 27.5 22.9973 27.5 22.5Z"/>
<path d="M13.125 29.3774C12.6277 29.3774 12.1508 29.575 11.7992 29.9266C11.4475 30.2782 11.25 30.7552 11.25 31.2524C11.25 31.7497 11.4475 32.2266 11.7992 32.5783C12.1508 32.9299 12.6277 33.1274 13.125 33.1274H19.375C19.8723 33.1274 20.3492 32.9299 20.7008 32.5783C21.0525 32.2266 21.25 31.7497 21.25 31.2524C21.25 30.7552 21.0525 30.2782 20.7008 29.9266C20.3492 29.575 19.8723 29.3774 19.375 29.3774H13.125Z"/>
<path d="M25 50.6275C25 49.9645 24.7366 49.3286 24.2678 48.8597C23.7989 48.3909 23.163 48.1275 22.5 48.1275H7.5C6.83696 48.1275 6.20107 47.8641 5.73223 47.3953C5.26339 46.9264 5 46.2905 5 45.6275V15C5 14.8342 5.06585 14.6753 5.18306 14.5581C5.30027 14.4408 5.45924 14.375 5.625 14.375H54.375C54.5408 14.375 54.6997 14.4408 54.8169 14.5581C54.9342 14.6753 55 14.8342 55 15V21.875C55 22.538 55.2634 23.1739 55.7322 23.6428C56.2011 24.1116 56.837 24.375 57.5 24.375C58.163 24.375 58.7989 24.1116 59.2678 23.6428C59.7366 23.1739 60 22.538 60 21.875V9.375C60 7.38588 59.2098 5.47822 57.8033 4.0717C56.3968 2.66518 54.4891 1.875 52.5 1.875H7.5C5.51088 1.875 3.60322 2.66518 2.1967 4.0717C0.790176 5.47822 0 7.38588 0 9.375L0 45.625C0 47.6141 0.790176 49.5218 2.1967 50.9283C3.60322 52.3348 5.51088 53.125 7.5 53.125H22.5C23.163 53.125 23.7989 52.8616 24.2678 52.3928C24.7366 51.9239 25 51.288 25 50.625V50.6275ZM24.135 6.8775C24.3436 6.49912 24.6498 6.18362 25.0218 5.96389C25.3938 5.74417 25.818 5.62826 26.25 5.62826C26.682 5.62826 27.1062 5.74417 27.4782 5.96389C27.8502 6.18362 28.1564 6.49912 28.365 6.8775C28.6055 7.25099 28.7387 7.68341 28.75 8.1275C28.7383 8.57152 28.6052 9.00385 28.365 9.3775C28.1564 9.75588 27.8502 10.0714 27.4782 10.2911C27.1062 10.5108 26.682 10.6267 26.25 10.6267C25.818 10.6267 25.3938 10.5108 25.0218 10.2911C24.6498 10.0714 24.3436 9.75588 24.135 9.3775C23.8948 9.00385 23.7617 8.57152 23.75 8.1275C23.7613 7.68341 23.8945 7.25099 24.135 6.8775ZM15.385 6.8775C15.5936 6.49912 15.8998 6.18362 16.2718 5.96389C16.6438 5.74417 17.068 5.62826 17.5 5.62826C17.932 5.62826 18.3562 5.74417 18.7282 5.96389C19.1002 6.18362 19.4064 6.49912 19.615 6.8775C19.8555 7.25099 19.9887 7.68341 20 8.1275C19.9883 8.57152 19.8552 9.00385 19.615 9.3775C19.4064 9.75588 19.1002 10.0714 18.7282 10.2911C18.3562 10.5108 17.932 10.6267 17.5 10.6267C17.068 10.6267 16.6438 10.5108 16.2718 10.2911C15.8998 10.0714 15.5936 9.75588 15.385 9.3775C15.1448 9.00385 15.0117 8.57152 15 8.1275C15.0113 7.68341 15.1445 7.25099 15.385 6.8775ZM6.48 7.105C6.67645 6.66668 6.99501 6.29423 7.39758 6.03221C7.80015 5.77019 8.26968 5.62968 8.75 5.6275C9.18122 5.63197 9.60366 5.74983 9.97491 5.96924C10.3462 6.18865 10.6531 6.50189 10.865 6.8775C11.1055 7.25099 11.2387 7.68341 11.25 8.1275C11.2383 8.57152 11.1052 9.00385 10.865 9.3775C10.6564 9.75588 10.3502 10.0714 9.97819 10.2911C9.60619 10.5108 9.18205 10.6267 8.75 10.6267C8.31795 10.6267 7.89381 10.5108 7.52181 10.2911C7.1498 10.0714 6.84356 9.75588 6.635 9.3775C6.39484 9.00385 6.26168 8.57152 6.25 8.1275C6.25256 7.77413 6.331 7.42543 6.48 7.105Z"/>
</svg>
