<svg width="24" height="24" viewBox="0 0 24 24" xmlns="http://www.w3.org/2000/svg">
<path d="M23.146 5.40002L20.354 2.60002C20.3076 2.55346 20.2524 2.51651 20.1916 2.49131C20.1309 2.4661 20.0658 2.45312 20 2.45312C19.9342 2.45312 19.8691 2.4661 19.8084 2.49131C19.7476 2.51651 19.6924 2.55346 19.646 2.60002L7.854 14.4C7.80755 14.4466 7.75238 14.4835 7.69163 14.5087C7.63089 14.5339 7.56577 14.5469 7.5 14.5469C7.43423 14.5469 7.36911 14.5339 7.30837 14.5087C7.24762 14.4835 7.19245 14.4466 7.146 14.4L4.354 11.6C4.30755 11.5535 4.25238 11.5165 4.19163 11.4913C4.13089 11.4661 4.06577 11.4531 4 11.4531C3.93423 11.4531 3.86911 11.4661 3.80837 11.4913C3.74762 11.5165 3.69245 11.5535 3.646 11.6L0.854 14.4C0.760265 14.4938 0.707607 14.6209 0.707607 14.7535C0.707607 14.8861 0.760265 15.0133 0.854 15.107L7.146 21.4C7.19245 21.4466 7.24762 21.4835 7.30837 21.5087C7.36911 21.5339 7.43423 21.5469 7.5 21.5469C7.56577 21.5469 7.63089 21.5339 7.69163 21.5087C7.75238 21.4835 7.80755 21.4466 7.854 21.4L23.146 6.10002C23.2376 6.00655 23.2889 5.8809 23.2889 5.75002C23.2889 5.61914 23.2376 5.49348 23.146 5.40002Z"/>
</svg>
