<svg width="54" height="54" viewBox="0 0 54 54" fill="none" xmlns="http://www.w3.org/2000/svg">
<path d="M32.2019 12.42C32.2019 11.9725 32.0241 11.5433 31.7077 11.2268C31.3912 10.9103 30.962 10.7325 30.5144 10.7325C30.0669 10.7325 29.6376 10.9103 29.3212 11.2268C29.0047 11.5433 28.8269 11.9725 28.8269 12.42C28.8252 12.8979 28.7215 13.3698 28.5228 13.8044C28.3242 14.2389 28.0351 14.6261 27.6749 14.94C27.5994 15.0075 27.5072 15.0535 27.4079 15.0733C27.3086 15.0931 27.2058 15.0859 27.1102 15.0525C26.3979 14.8025 25.6488 14.6733 24.8939 14.67C24.1612 14.6727 23.4341 14.7982 22.7429 15.0413C22.6498 15.0732 22.5499 15.0803 22.4532 15.0618C22.3565 15.0432 22.2663 14.9997 22.1917 14.9355C21.8155 14.6307 21.5099 14.248 21.2959 13.8138C21.0819 13.3795 20.9645 12.904 20.9519 12.42C20.9519 11.9725 20.7741 11.5433 20.4576 11.2268C20.1412 10.9103 19.712 10.7325 19.2644 10.7325C18.8169 10.7325 18.3876 10.9103 18.0712 11.2268C17.7547 11.5433 17.5769 11.9725 17.5769 12.42C17.5921 14.0716 18.219 15.6588 19.3364 16.875C19.4214 16.9699 19.4716 17.0907 19.479 17.2178C19.4863 17.3449 19.4503 17.4708 19.3769 17.5748C18.699 18.527 18.2824 19.6402 18.1687 20.8035C18.1611 20.8818 18.1701 20.9608 18.1949 21.0354C18.2198 21.11 18.26 21.1786 18.313 21.2367C18.366 21.2948 18.4306 21.3411 18.5027 21.3727C18.5747 21.4043 18.6525 21.4204 18.7312 21.42H31.0499C31.1284 21.4201 31.206 21.4037 31.2777 21.372C31.3495 21.3403 31.4138 21.2939 31.4665 21.2358C31.5193 21.1778 31.5593 21.1093 31.5841 21.0349C31.6088 20.9604 31.6177 20.8816 31.6102 20.8035C31.4967 19.6391 31.0792 18.5249 30.3997 17.5725C30.3267 17.4686 30.2912 17.343 30.299 17.2163C30.3067 17.0896 30.3573 16.9693 30.4424 16.875C31.5596 15.6587 32.1865 14.0715 32.2019 12.42Z"/>
<path d="M14.7644 32.1075C14.3169 32.1075 13.8876 32.2853 13.5712 32.6018C13.2547 32.9183 13.0769 33.3475 13.0769 33.795C13.0769 34.2426 13.2547 34.6718 13.5712 34.9883C13.8876 35.3048 14.3169 35.4825 14.7644 35.4825H18.4207C18.5235 35.4826 18.6243 35.5107 18.7124 35.5638C18.8004 35.6169 18.8722 35.6931 18.9202 35.784C19.4862 36.8792 20.3426 37.7976 21.3956 38.4387C22.4487 39.0798 23.6577 39.4188 24.8905 39.4188C26.1233 39.4188 27.3324 39.0798 28.3854 38.4387C29.4384 37.7976 30.2948 36.8792 30.8609 35.784C30.9088 35.6931 30.9807 35.6169 31.0687 35.5638C31.1567 35.5107 31.2576 35.4826 31.3604 35.4825H35.0144C35.462 35.4825 35.8912 35.3048 36.2076 34.9883C36.5241 34.6718 36.7019 34.2426 36.7019 33.795C36.7019 33.3475 36.5241 32.9183 36.2076 32.6018C35.8912 32.2853 35.462 32.1075 35.0144 32.1075H32.2019C32.0527 32.1075 31.9096 32.0483 31.8042 31.9428C31.6987 31.8373 31.6394 31.6942 31.6394 31.545V29.295C31.6394 29.1459 31.6987 29.0028 31.8042 28.8973C31.9096 28.7918 32.0527 28.7325 32.2019 28.7325H35.0144C35.462 28.7325 35.8912 28.5548 36.2076 28.2383C36.5241 27.9218 36.7019 27.4926 36.7019 27.045C36.7019 26.5975 36.5241 26.1683 36.2076 25.8518C35.8912 25.5353 35.462 25.3575 35.0144 25.3575H32.2019C32.0527 25.3575 31.9096 25.2983 31.8042 25.1928C31.6987 25.0873 31.6394 24.9442 31.6394 24.795V24.2325C31.6397 24.1586 31.6254 24.0853 31.5972 24.0169C31.569 23.9486 31.5276 23.8864 31.4753 23.8341C31.423 23.7818 31.3609 23.7404 31.2925 23.7123C31.2241 23.6841 31.1509 23.6698 31.0769 23.67H18.7019C18.5527 23.67 18.4096 23.7293 18.3042 23.8348C18.1987 23.9403 18.1394 24.0834 18.1394 24.2325V24.795C18.1397 24.869 18.1254 24.9423 18.0972 25.0107C18.069 25.079 18.0276 25.1412 17.9753 25.1935C17.923 25.2458 17.8609 25.2872 17.7925 25.3153C17.7241 25.3435 17.6509 25.3578 17.5769 25.3575H14.7644C14.3169 25.3575 13.8876 25.5353 13.5712 25.8518C13.2547 26.1683 13.0769 26.5975 13.0769 27.045C13.0769 27.4926 13.2547 27.9218 13.5712 28.2383C13.8876 28.5548 14.3169 28.7325 14.7644 28.7325H17.5769C17.6509 28.7323 17.7241 28.7466 17.7925 28.7748C17.8609 28.8029 17.923 28.8443 17.9753 28.8966C18.0276 28.9489 18.069 29.0111 18.0972 29.0794C18.1254 29.1478 18.1397 29.2211 18.1394 29.295V31.545C18.1397 31.619 18.1254 31.6923 18.0972 31.7607C18.069 31.829 18.0276 31.8912 17.9753 31.9435C17.923 31.9958 17.8609 32.0372 17.7925 32.0653C17.7241 32.0935 17.6509 32.1078 17.5769 32.1075H14.7644Z"/>
<path d="M4.65274e-05 24.7612C-0.00875075 29.2946 1.23014 33.7431 3.58103 37.6193C5.93192 41.4955 9.30415 44.6501 13.3284 46.7375C17.3526 48.8249 21.8737 49.7646 26.3965 49.4538C30.9192 49.143 35.2692 47.5936 38.97 44.9752C39.1874 44.8213 39.4523 44.7495 39.7176 44.7726C39.983 44.7957 40.2315 44.9121 40.419 45.1012L48.2378 53.001C48.8706 53.6341 49.7291 53.9899 50.6243 53.9902C51.5194 53.9904 52.378 53.635 53.0112 53.0021C53.6443 52.3693 54.0001 51.5108 54.0003 50.6157C54.0005 49.7205 53.6451 48.8619 53.0123 48.2287L45.1643 40.302C44.9793 40.1147 44.8658 39.8685 44.8436 39.6062C44.8214 39.344 44.8919 39.0822 45.0428 38.8665C47.2589 35.679 48.6935 32.0146 49.2306 28.1697C49.7678 24.3249 49.3924 20.4076 48.1347 16.7348C46.8771 13.062 44.7726 9.73677 41.9915 7.02816C39.2104 4.31956 35.8307 2.30363 32.1259 1.14348C28.4212 -0.0166773 24.4953 -0.288483 20.666 0.35005C16.8367 0.988583 13.2115 2.51952 10.0837 4.81902C6.95578 7.11851 4.41311 10.122 2.66134 13.5864C0.909561 17.0509 -0.00212068 20.8791 4.65274e-05 24.7612ZM24.75 4.51124C28.7551 4.51124 32.6702 5.69889 36.0003 7.92398C39.3304 10.1491 41.9259 13.3117 43.4586 17.0119C44.9913 20.7121 45.3923 24.7837 44.611 28.7118C43.8296 32.6399 41.901 36.2481 39.069 39.0802C36.2369 41.9122 32.6287 43.8408 28.7006 44.6221C24.7725 45.4035 20.7009 45.0025 17.0007 43.4698C13.3005 41.9371 10.1379 39.3416 7.91279 36.0115C5.68769 32.6814 4.50005 28.7663 4.50005 24.7612C4.506 19.3924 6.64139 14.2452 10.4377 10.4489C14.234 6.65259 19.3812 4.5172 24.75 4.51124Z"/>
</svg>
