<svg xmlns="http://www.w3.org/2000/svg" viewBox="0 0 24 24"><title>copy-paste</title><path d="M13.4,4.727a.251.251,0,0,0,.2.265A1.089,1.089,0,0,1,14.424,6.1V7.5a1.244,1.244,0,0,0,1.244,1.244h0A1.244,1.244,0,0,0,16.913,7.5V3.975a1.494,1.494,0,0,0-1.5-1.494H13.689a.246.246,0,0,0-.177.074.249.249,0,0,0-.073.177C13.441,3.205,13.44,4.224,13.4,4.727Z"/><path d="M8.954,21.262A1.244,1.244,0,0,0,7.71,20.018H3.484a1.073,1.073,0,0,1-1-1.136V6.1a1.086,1.086,0,0,1,.842-1.115.25.25,0,0,0,.2-.258c-.039-.766-.051-1.6-.055-2a.25.25,0,0,0-.25-.247H1.5A1.494,1.494,0,0,0,0,3.975V21.012a1.493,1.493,0,0,0,1.494,1.493H7.71a1.244,1.244,0,0,0,1.244-1.243Z"/><path d="M11.937,4.472V2.484a.5.5,0,0,0-.5-.5h-.758a.251.251,0,0,1-.249-.222,1.989,1.989,0,0,0-3.953,0,.249.249,0,0,1-.249.222H5.473a.5.5,0,0,0-.5.5V4.472a.5.5,0,0,0,.5.5H11.44A.5.5,0,0,0,11.937,4.472Z"/><path d="M19.02,17.269H15.041a.75.75,0,1,0,0,1.5H19.02a.75.75,0,1,0,0-1.5Z"/><path d="M14.291,14.54a.75.75,0,0,0,.75.749h2.486a.75.75,0,1,0,0-1.5H15.041A.75.75,0,0,0,14.291,14.54Z"/><path d="M23.5,13.46a1.991,1.991,0,0,0-.584-1.409l-1.406-1.4a1.994,1.994,0,0,0-1.41-.584H12.494A1.993,1.993,0,0,0,10.5,12.055V22a2,2,0,0,0,2,2h9a2,2,0,0,0,2-2Zm-11-.4a1,1,0,0,1,1-1l6.187,0a1,1,0,0,1,.707.292l.818.816a1,1,0,0,1,.293.708V21a1,1,0,0,1-1,1h-7a1,1,0,0,1-1-1Z"/></svg>