<svg width="55" height="55" viewBox="0 0 55 55" xmlns="http://www.w3.org/2000/svg">
<g clip-path="url(#clip0)">
<path d="M24.2756 17.9805C24.1236 17.9805 23.9779 18.0408 23.8704 18.1483C23.763 18.2557 23.7026 18.4014 23.7026 18.5534V23.524C23.7026 23.676 23.763 23.8217 23.8704 23.9291C23.9779 24.0366 24.1236 24.0969 24.2756 24.0969H28.2401C29.0367 24.0751 29.7934 23.7433 30.3491 23.1722C30.9048 22.601 31.2158 21.8356 31.2158 21.0387C31.2158 20.2418 30.9048 19.4763 30.3491 18.9052C29.7934 18.334 29.0367 18.0023 28.2401 17.9805H24.2756Z"/>
<path d="M28.2401 29.8259H24.2756C24.1236 29.8259 23.9779 29.8863 23.8704 29.9937C23.763 30.1012 23.7026 30.2469 23.7026 30.3988V35.3718C23.7026 35.5237 23.763 35.6694 23.8704 35.7769C23.9779 35.8843 24.1236 35.9447 24.2756 35.9447H28.2401C29.0515 35.9447 29.8297 35.6224 30.4034 35.0486C30.9772 34.4749 31.2995 33.6967 31.2995 32.8853C31.2995 32.0739 30.9772 31.2957 30.4034 30.722C29.8297 30.1483 29.0515 29.8259 28.2401 29.8259Z"/>
<path d="M27.5 0C22.061 0 16.7442 1.61285 12.2218 4.63459C7.69948 7.65632 4.17474 11.9512 2.09333 16.9762C0.0119154 22.0012 -0.532676 27.5305 0.528417 32.865C1.58951 38.1995 4.20863 43.0995 8.05457 46.9454C11.9005 50.7914 16.8006 53.4105 22.135 54.4716C27.4695 55.5327 32.9988 54.9881 38.0238 52.9067C43.0488 50.8253 47.3437 47.3005 50.3654 42.7782C53.3872 38.2558 55 32.939 55 27.5C55 20.2065 52.1027 13.2118 46.9454 8.05456C41.7882 2.89731 34.7935 0 27.5 0V0ZM35.0052 26.5971C34.9202 26.6995 34.8737 26.8284 34.8737 26.9615C34.8737 27.0945 34.9202 27.2234 35.0052 27.3258C36.0444 28.5745 36.7143 30.0885 36.9393 31.6974C37.1643 33.3062 36.9355 34.9459 36.2787 36.4318C35.6219 37.9176 34.5632 39.1904 33.2219 40.1069C31.8806 41.0234 30.31 41.5471 28.6871 41.619C28.5404 41.626 28.4019 41.6892 28.3004 41.7953C28.1989 41.9015 28.1421 42.0427 28.1417 42.1896V43.5417C28.1417 44.3014 27.8399 45.03 27.3027 45.5672C26.7654 46.1044 26.0368 46.4062 25.2771 46.4062C24.5174 46.4062 23.7887 46.1044 23.2515 45.5672C22.7143 45.03 22.4125 44.3014 22.4125 43.5417V42.2469C22.4128 42.1716 22.3982 42.0969 22.3695 42.0273C22.3408 41.9576 22.2986 41.8943 22.2454 41.8411C22.1921 41.7878 22.1288 41.7456 22.0592 41.7169C21.9896 41.6883 21.9149 41.6737 21.8396 41.674H20.8381C20.0784 41.674 19.3498 41.3722 18.8126 40.8349C18.2754 40.2977 17.9736 39.5691 17.9736 38.8094V15.125C17.9733 14.7487 18.0471 14.3761 18.191 14.0284C18.3348 13.6807 18.5458 13.3648 18.8119 13.0988C19.078 12.8327 19.3939 12.6217 19.7416 12.4779C20.0892 12.334 20.4619 12.2601 20.8381 12.2604H21.8419C21.9938 12.2604 22.1396 12.2001 22.247 12.0926C22.3544 11.9852 22.4148 11.8394 22.4148 11.6875V11.4583C22.4148 10.6986 22.7166 9.96998 23.2538 9.43277C23.791 8.89555 24.5197 8.59375 25.2794 8.59375C26.0391 8.59375 26.7677 8.89555 27.305 9.43277C27.8422 9.96998 28.144 10.6986 28.144 11.4583V11.8044C28.1439 11.9334 28.1937 12.0574 28.2829 12.1505C28.3722 12.2437 28.494 12.2986 28.6229 12.304C30.2537 12.3593 31.8361 12.8717 33.1898 13.7827C34.5435 14.6937 35.614 15.9667 36.2793 17.4567C36.9446 18.9466 37.1779 20.5934 36.9526 22.2095C36.7274 23.8256 36.0526 25.3459 35.0052 26.5971Z" />
</g>
<defs>
<clipPath id="clip0">
<rect width="55" height="55" fill="white"/>
</clipPath>
</defs>
</svg>
