<svg width="23" height="22" viewBox="0 0 23 22" fill="none" xmlns="http://www.w3.org/2000/svg">
<path fill-rule="evenodd" clip-rule="evenodd" d="M11.4993 0C5.14912 0 0 5.04928 0 11.2793C0 16.2616 3.29475 20.4889 7.86528 21.9805C8.44028 22.0842 8.65016 21.7359 8.65016 21.437C8.65016 21.1692 8.64009 20.46 8.63434 19.519C5.43519 20.2006 4.76028 18.007 4.76028 18.007C4.23775 16.7043 3.48378 16.3575 3.48378 16.3575C2.43944 15.6575 3.56284 15.6716 3.56284 15.6716C4.71644 15.7512 5.32378 16.834 5.32378 16.834C6.35016 18.5575 8.0155 18.0598 8.671 17.7708C8.77522 17.0419 9.07278 16.545 9.40125 16.263C6.84753 15.9782 4.163 15.0111 4.163 10.6893C4.163 9.45779 4.61078 8.45118 5.34678 7.66238C5.22819 7.37689 4.83359 6.23071 5.45891 4.67779C5.45891 4.67779 6.42491 4.37468 8.62141 5.83384C9.53925 5.5836 10.5225 5.45883 11.5007 5.4539C12.4775 5.45883 13.4615 5.5836 14.38 5.83384C16.5751 4.37468 17.5389 4.67779 17.5389 4.67779C18.1664 6.23071 17.7718 7.37689 17.6532 7.66238C18.3907 8.45118 18.8356 9.45779 18.8356 10.6893C18.8356 15.0217 16.1467 15.9754 13.5851 16.2545C13.9977 16.6028 14.3657 17.2908 14.3657 18.3432C14.3657 19.851 14.3513 21.067 14.3513 21.437C14.3513 21.7387 14.5583 22.0898 15.1419 21.9791C19.7081 20.4847 23 16.2602 23 11.2793C23 5.04928 17.8509 0 11.4993 0Z"/>
</svg>
