<svg xmlns="http://www.w3.org/2000/svg" viewBox="0 0 24 24"><title>list-to-do</title><path d="M10.414,13.531,9.039,15.249a.139.139,0,0,1-.228,0l-.781-.781A.75.75,0,0,0,6.97,15.53l1.5,1.5a.748.748,0,0,0,.53.219h.041a.75.75,0,0,0,.545-.28l2-2.5a.75.75,0,0,0-1.172-.937Z"/><path d="M10.414,8.031,9.039,9.749a.139.139,0,0,1-.228,0L8.03,8.969A.75.75,0,0,0,6.97,10.03l1.5,1.5a.748.748,0,0,0,.53.219h.041a.75.75,0,0,0,.545-.28l2-2.5a.75.75,0,0,0-1.172-.937Z"/><path d="M16,9.749H13.5a.75.75,0,0,0,0,1.5H16a.75.75,0,0,0,0-1.5Z"/><path d="M16,15.249H13.5a.75.75,0,1,0,0,1.5H16a.75.75,0,0,0,0-1.5Z"/><path d="M21.707,5.706,16.293.292A1,1,0,0,0,15.586,0H4A2,2,0,0,0,2,2V22a2,2,0,0,0,2,2H20a2,2,0,0,0,2-2V6.413A1,1,0,0,0,21.707,5.706ZM20,21.5a.5.5,0,0,1-.5.5H4.5a.5.5,0,0,1-.5-.5V2.5A.5.5,0,0,1,4.5,2H14.75a.25.25,0,0,1,.25.25V5a2,2,0,0,0,2,2h2.75a.25.25,0,0,1,.25.25Z"/></svg>