<svg width="54" height="54" viewBox="0 0 54 54" fill="none" xmlns="http://www.w3.org/2000/svg">
<path d="M50.6768 7.52637L28.7663 1.58637C27.6092 1.2759 26.3908 1.2759 25.2337 1.58637L3.32325 7.52637C2.37423 7.79423 1.53752 8.36233 0.938426 9.14557C0.33933 9.92882 0.010086 10.8851 0 11.8711L0 40.0906C3.71032e-06 41.0251 0.290945 41.9364 0.832436 42.6981C1.37393 43.4597 2.13911 44.0339 3.02175 44.3409L25.839 52.2789C26.5693 52.533 27.3383 52.6579 28.1115 52.6479C28.9142 52.6512 29.7104 52.5031 30.4583 52.2114L51.102 44.3364C51.9386 43.9914 52.6574 43.4115 53.1717 42.6669C53.686 41.9223 53.9736 41.0447 54 40.1401V11.8711C53.9921 10.8845 53.6637 9.9272 53.0643 9.14352C52.4648 8.35984 51.6269 7.79227 50.6768 7.52637ZM26.4105 5.93112C26.7967 5.82761 27.2033 5.82761 27.5895 5.93112L41.4428 9.68637C41.5614 9.7191 41.6661 9.78988 41.7407 9.88783C41.8153 9.98578 41.8557 10.1055 41.8557 10.2286C41.8557 10.3517 41.8153 10.4715 41.7407 10.5694C41.6661 10.6674 41.5614 10.7381 41.4428 10.7709L28.2488 14.5644C28.1508 14.5914 28.0474 14.5914 27.9495 14.5644L13.0185 10.6471C12.8989 10.6151 12.7931 10.5445 12.7177 10.4462C12.6423 10.348 12.6014 10.2276 12.6014 10.1037C12.6014 9.97989 12.6423 9.8595 12.7177 9.76125C12.7931 9.663 12.8989 9.59239 13.0185 9.56037L26.4105 5.93112ZM4.878 40.2211C4.76766 40.1828 4.67199 40.1111 4.60425 40.0159C4.53651 39.9208 4.50008 39.8069 4.5 39.6901V13.7949C4.50017 13.7076 4.52058 13.6215 4.55962 13.5434C4.59866 13.4653 4.65527 13.3974 4.725 13.3449C4.79337 13.2929 4.87256 13.257 4.9567 13.2399C5.04084 13.2228 5.12776 13.2248 5.211 13.2459L25.461 18.5604C25.5815 18.5917 25.6882 18.6622 25.7643 18.7608C25.8405 18.8593 25.8818 18.9803 25.8818 19.1049V46.7349C25.881 46.8233 25.8592 46.9102 25.8181 46.9885C25.777 47.0667 25.7178 47.1341 25.6455 47.1849C25.5723 47.2368 25.4879 47.2706 25.3991 47.2835C25.3103 47.2964 25.2197 47.288 25.1347 47.2591L4.878 40.2211Z" fill="#0B476D"/>
</svg>
