<svg width="54" height="54" viewBox="0 0 54 54" fill="none" xmlns="http://www.w3.org/2000/svg">
<g clip-path="url(#clip0)">
<path d="M42.0908 20.7157L44.3408 18.4657C44.5557 18.2581 44.7271 18.0099 44.845 17.7353C44.9629 17.4608 45.025 17.1656 45.0276 16.8668C45.0302 16.5681 44.9732 16.2718 44.8601 15.9953C44.747 15.7188 44.5799 15.4676 44.3687 15.2563C44.1574 15.045 43.9062 14.878 43.6297 14.7648C43.3531 14.6517 43.0569 14.5948 42.7581 14.5974C42.4594 14.6 42.1641 14.662 41.8896 14.78C41.6151 14.8979 41.3668 15.0693 41.1593 15.2842L38.9093 17.5342C38.7003 17.7434 38.4522 17.9093 38.179 18.0226C37.9059 18.1358 37.6131 18.1941 37.3174 18.1941C37.0217 18.1941 36.7289 18.1358 36.4558 18.0226C36.1826 17.9093 35.9345 17.7434 35.7255 17.5342C34.4398 16.307 32.7307 15.6223 30.9533 15.6223C29.1759 15.6223 27.4668 16.307 26.181 17.5342C25.7591 17.956 25.1869 18.193 24.5903 18.193C23.9936 18.193 23.4215 17.956 22.9995 17.5342C21.7134 16.3069 20.0039 15.6221 18.2261 15.6221C16.4484 15.6221 14.7389 16.3069 13.4528 17.5342L11.2028 19.7842C10.7809 20.2064 10.544 20.7789 10.5442 21.3757C10.5444 21.9726 10.7817 22.5449 11.2039 22.9668C11.6261 23.3887 12.1986 23.6256 12.7954 23.6254C13.3923 23.6252 13.9646 23.3879 14.3865 22.9657L16.6365 20.7157C17.0651 20.3066 17.6348 20.0784 18.2273 20.0784C18.8197 20.0784 19.3894 20.3066 19.818 20.7157C21.0838 21.9811 22.8004 22.692 24.5903 22.692C26.3801 22.692 28.0967 21.9811 29.3625 20.7157C29.7911 20.3066 30.3608 20.0784 30.9533 20.0784C31.5457 20.0784 32.1154 20.3066 32.544 20.7157C33.1708 21.3426 33.915 21.8399 34.734 22.1792C35.553 22.5185 36.4309 22.6931 37.3174 22.6931C38.2039 22.6931 39.0817 22.5185 39.9008 22.1792C40.7198 21.8399 41.464 21.3426 42.0908 20.7157Z" fill="#0B476D"/>
<path d="M26.181 31.0344C25.7591 31.4562 25.1869 31.6932 24.5903 31.6932C23.9936 31.6932 23.4215 31.4562 22.9995 31.0344C21.7134 29.8071 20.0039 29.1223 18.2261 29.1223C16.4484 29.1223 14.7389 29.8071 13.4528 31.0344L11.2028 33.2844C10.7809 33.7066 10.544 34.2791 10.5442 34.8759C10.5444 35.4728 10.7817 36.0451 11.2039 36.467C11.6261 36.8889 12.1986 37.1258 12.7954 37.1256C13.3923 37.1254 13.9646 36.8881 14.3865 36.4659L16.6365 34.2159C17.0651 33.8068 17.6348 33.5786 18.2273 33.5786C18.8197 33.5786 19.3894 33.8068 19.818 34.2159C21.0838 35.4813 22.8004 36.1922 24.5903 36.1922C26.3801 36.1922 28.0967 35.4813 29.3625 34.2159C29.7724 33.7915 29.9992 33.2232 29.994 32.6332C29.9889 32.0433 29.7523 31.479 29.3351 31.0618C28.9179 30.6446 28.3536 30.408 27.7637 30.4029C27.1737 30.3977 26.6054 30.6245 26.181 31.0344Z" fill="#0B476D"/>
<path d="M54 4.5C54 3.30653 53.5259 2.16193 52.682 1.31802C51.8381 0.474106 50.6935 0 49.5 0L4.5 0C3.30653 0 2.16193 0.474106 1.31802 1.31802C0.474106 2.16193 0 3.30653 0 4.5L0 49.5C0 50.6935 0.474106 51.8381 1.31802 52.682C2.16193 53.5259 3.30653 54 4.5 54H36C36.5967 53.9999 37.1689 53.7627 37.5908 53.3408L53.3408 37.5908C53.7627 37.1689 53.9999 36.5967 54 36V4.5ZM4.5 5.625C4.5 5.32663 4.61853 5.04048 4.8295 4.8295C5.04048 4.61853 5.32663 4.5 5.625 4.5H48.375C48.6734 4.5 48.9595 4.61853 49.1705 4.8295C49.3815 5.04048 49.5 5.32663 49.5 5.625V33.75C49.5 34.0484 49.3815 34.3345 49.1705 34.5455C48.9595 34.7565 48.6734 34.875 48.375 34.875H39.375C38.1815 34.875 37.0369 35.3491 36.193 36.193C35.3491 37.0369 34.875 38.1815 34.875 39.375V48.375C34.875 48.6734 34.7565 48.9595 34.5455 49.1705C34.3345 49.3815 34.0484 49.5 33.75 49.5H5.625C5.32663 49.5 5.04048 49.3815 4.8295 49.1705C4.61853 48.9595 4.5 48.6734 4.5 48.375V5.625Z" fill="#0B476D"/>
</g>
<defs>
<clipPath id="clip0">
<rect width="54" height="54" fill="white"/>
</clipPath>
</defs>
</svg>
