<svg width="54" height="54" viewBox="0 0 54 54" fill="none" xmlns="http://www.w3.org/2000/svg">
<g clip-path="url(#clip0)">
<path d="M40.4461 20.637L27.1193 13.023C26.7642 12.8203 26.3621 12.7143 25.9531 12.7156C25.5442 12.7169 25.1428 12.8254 24.7889 13.0304C24.4351 13.2353 24.1412 13.5295 23.9365 13.8835C23.7319 14.2375 23.6237 14.6391 23.6228 15.048V30.2737C23.6237 30.6826 23.7319 31.0842 23.9365 31.4382C24.1412 31.7922 24.4351 32.0864 24.7889 32.2913C25.1428 32.4963 25.5442 32.6048 25.9531 32.6061C26.3621 32.6074 26.7642 32.5014 27.1193 32.2987L40.4438 24.6825C40.8 24.4778 41.0959 24.1828 41.3016 23.8273C41.5074 23.4718 41.6157 23.0682 41.6157 22.6575C41.6157 22.2467 41.5074 21.8432 41.3016 21.4876C41.0959 21.1321 40.8 20.8371 40.4438 20.6325L40.4461 20.637Z" fill="#0B476D"/>
<path d="M49.5 0H12.375C11.1815 0 10.0369 0.474106 9.19302 1.31802C8.34911 2.16193 7.875 3.30653 7.875 4.5V41.625C7.875 42.8185 8.34911 43.9631 9.19302 44.807C10.0369 45.6509 11.1815 46.125 12.375 46.125H49.5C50.6935 46.125 51.8381 45.6509 52.682 44.807C53.5259 43.9631 54 42.8185 54 41.625V4.5C54 3.30653 53.5259 2.16193 52.682 1.31802C51.8381 0.474106 50.6935 0 49.5 0V0ZM49.1737 41.2965C49.0691 41.4009 48.9449 41.4837 48.8082 41.54C48.6715 41.5964 48.5251 41.6253 48.3773 41.625H13.5C13.2016 41.625 12.9155 41.5065 12.7045 41.2955C12.4935 41.0845 12.375 40.7984 12.375 40.5V5.625C12.375 5.32663 12.4935 5.04048 12.7045 4.8295C12.9155 4.61853 13.2016 4.5 13.5 4.5H48.375C48.6734 4.5 48.9595 4.61853 49.1705 4.8295C49.3815 5.04048 49.5 5.32663 49.5 5.625V40.5C49.4993 40.7959 49.3821 41.0797 49.1737 41.2897V41.2965Z" fill="#0B476D"/>
<path d="M43.875 49.5H5.625C5.32663 49.5 5.04048 49.3815 4.8295 49.1705C4.61853 48.9595 4.5 48.6734 4.5 48.375V10.125C4.5 9.52826 4.26295 8.95597 3.84099 8.53401C3.41903 8.11205 2.84674 7.875 2.25 7.875C1.65326 7.875 1.08097 8.11205 0.65901 8.53401C0.237053 8.95597 0 9.52826 0 10.125L0 49.5C0 50.6935 0.474106 51.8381 1.31802 52.682C2.16193 53.5259 3.30653 54 4.5 54H43.875C44.4717 54 45.044 53.7629 45.466 53.341C45.8879 52.919 46.125 52.3467 46.125 51.75C46.125 51.1533 45.8879 50.581 45.466 50.159C45.044 49.7371 44.4717 49.5 43.875 49.5Z" fill="#0B476D"/>
</g>
<defs>
<clipPath id="clip0">
<rect width="54" height="54" fill="white"/>
</clipPath>
</defs>
</svg>
