<svg width="50" height="50" viewBox="0 0 50 50" fill="none" xmlns="http://www.w3.org/2000/svg">
<g clip-path="url(#clip0)">
<path d="M39.5833 27.0833C39.0308 27.0833 38.5009 27.3028 38.1102 27.6935C37.7195 28.0842 37.5 28.6141 37.5 29.1667V35.4167H31.25C30.1449 35.4167 29.0851 35.8557 28.3037 36.6371C27.5223 37.4185 27.0833 38.4783 27.0833 39.5833V45.8333H6.25C5.69747 45.8333 5.16756 45.6138 4.77686 45.2231C4.38616 44.8324 4.16667 44.3025 4.16667 43.75V6.25C4.16667 5.69747 4.38616 5.16756 4.77686 4.77686C5.16756 4.38616 5.69747 4.16667 6.25 4.16667H20.8333C21.3859 4.16667 21.9158 3.94717 22.3065 3.55647C22.6972 3.16577 22.9167 2.63587 22.9167 2.08333C22.9167 1.5308 22.6972 1.0009 22.3065 0.610194C21.9158 0.219493 21.3859 0 20.8333 0L6.25 0C4.5924 0 3.00268 0.65848 1.83058 1.83058C0.65848 3.00269 0 4.5924 0 6.25L0 43.75C0 45.4076 0.65848 46.9973 1.83058 48.1694C3.00268 49.3415 4.5924 50 6.25 50H27.0833C27.6307 50.0015 28.1729 49.8943 28.6786 49.6848C29.1842 49.4752 29.6433 49.1674 30.0292 48.7792L40.4458 38.3625C41.2257 37.5802 41.6646 36.5213 41.6667 35.4167V29.1667C41.6667 28.6141 41.4472 28.0842 41.0565 27.6935C40.6658 27.3028 40.1359 27.0833 39.5833 27.0833Z" fill="#0B476D"/>
<path d="M18.1875 26.0853C18.0092 26.1342 17.8471 26.2296 17.7179 26.3617C17.5886 26.4939 17.4969 26.6581 17.4521 26.8374L16.2917 31.4978L13.6833 34.1062C13.3986 34.4007 13.2409 34.7953 13.2443 35.205C13.2476 35.6147 13.4118 36.0067 13.7013 36.2965C13.9909 36.5864 14.3827 36.7509 14.7924 36.7546C15.2021 36.7584 15.5968 36.6011 15.8917 36.3166L18.525 33.6874L23.1229 32.5312C23.3011 32.4865 23.4644 32.3956 23.5961 32.2675C23.7278 32.1395 23.8233 31.9789 23.8729 31.802C23.9225 31.6246 23.9241 31.4372 23.8776 31.259C23.8311 31.0808 23.7382 30.918 23.6083 30.7874L19.2021 26.3541C19.0719 26.2235 18.9094 26.1298 18.7311 26.0826C18.5529 26.0354 18.3653 26.0363 18.1875 26.0853Z" fill="#0B476D"/>
<path d="M49.3896 0.61046C48.9989 0.219895 48.4691 0.000488281 47.9167 0.000488281C47.3642 0.000488281 46.8344 0.219895 46.4437 0.61046L44.5687 2.48546C44.0342 2.34327 43.4767 2.30835 42.9285 2.38272C42.3804 2.4571 41.8524 2.63929 41.375 2.91879L41.2667 2.81254C40.0936 1.64696 38.5063 0.99381 36.8526 0.996153C35.1989 0.998496 33.6135 1.65614 32.4437 2.82504L24.9187 10.3355C24.5282 10.7261 24.3088 11.256 24.3088 11.8084C24.3088 12.3608 24.5282 12.8906 24.9187 13.2813C25.3127 13.6665 25.8418 13.8821 26.3927 13.8821C26.9437 13.8821 27.4727 13.6665 27.8667 13.2813L35.4167 5.75213C35.8087 5.36794 36.3364 5.15396 36.8853 5.15669C37.4342 5.15942 37.9598 5.37864 38.3479 5.76671L36.875 7.23963C36.6797 7.43497 36.57 7.69987 36.57 7.97609C36.57 8.2523 36.6797 8.5172 36.875 8.71254L41.2875 13.125C41.4828 13.3203 41.7477 13.43 42.024 13.43C42.3002 13.43 42.5651 13.3203 42.7604 13.125L46.4437 9.44171C46.96 8.92477 47.3313 8.28116 47.5204 7.57543C47.7094 6.86971 47.7096 6.12668 47.5208 5.42088L49.3958 3.54588C49.7824 3.1548 49.9987 2.62676 49.9975 2.07688C49.9963 1.527 49.7778 0.999886 49.3896 0.61046Z" fill="#0B476D"/>
<path d="M25.8333 29.6249C26.1094 29.6243 26.3739 29.5141 26.5688 29.3186L39.8104 16.0791C40.0057 15.8837 40.1154 15.6188 40.1154 15.3426C40.1154 15.0664 40.0057 14.8015 39.8104 14.6061L35.3959 10.1853C35.1969 9.99687 34.9334 9.89185 34.6594 9.89185C34.3854 9.89185 34.1218 9.99687 33.9229 10.1853L20.6813 23.427C20.486 23.6223 20.3763 23.8872 20.3763 24.1634C20.3763 24.4396 20.486 24.7045 20.6813 24.8999L25.1 29.3186C25.2944 29.5136 25.558 29.6237 25.8333 29.6249Z" fill="#0B476D"/>
</g>
<defs>
<clipPath id="clip0">
<rect width="50" height="50" fill="white"/>
</clipPath>
</defs>
</svg>
