<svg width="50" height="50" viewBox="0 0 50 50" fill="none" xmlns="http://www.w3.org/2000/svg">
<path d="M6.12292 50H43.8771C45.5005 49.9983 47.0569 49.3527 48.2048 48.2048C49.3527 47.0569 49.9983 45.5005 50 43.8771V6.12292C49.9983 4.49953 49.3527 2.9431 48.2048 1.79519C47.0569 0.647277 45.5005 0.00165455 43.8771 0L6.12292 0C4.49953 0.00165455 2.9431 0.647277 1.79519 1.79519C0.647277 2.9431 0.00165455 4.49953 0 6.12292V43.8771C0.00165455 45.5005 0.647277 47.0569 1.79519 48.2048C2.9431 49.3527 4.49953 49.9983 6.12292 50ZM43.8771 45.9188H6.12292C5.58143 45.9188 5.06213 45.7036 4.67924 45.3208C4.29635 44.9379 4.08125 44.4186 4.08125 43.8771V6.25C4.08125 5.69747 4.30074 5.16756 4.69144 4.77686C5.08214 4.38616 5.61205 4.16667 6.16458 4.16667H43.8354C44.388 4.16667 44.9179 4.38616 45.3086 4.77686C45.6993 5.16756 45.9188 5.69747 45.9188 6.25V43.8771C45.9188 44.4186 45.7036 44.9379 45.3208 45.3208C44.9379 45.7036 44.4186 45.9188 43.8771 45.9188Z" fill="#0B476D"/>
<path d="M39.2417 32.4834L34.9417 36.3C34.8519 36.3788 34.738 36.4246 34.6187 36.4299C34.4994 36.4352 34.3818 36.3997 34.2854 36.3292L31.4396 34.2209C30.7482 33.7365 29.9187 33.4888 29.075 33.5146C28.2171 33.5334 27.3926 33.8509 26.7438 34.4125L21.5 39.0667C21.0856 39.4336 20.8339 39.95 20.8003 40.5025C20.7667 41.0549 20.954 41.5981 21.3208 42.0125C21.6877 42.4269 22.2042 42.6786 22.7566 42.7122C23.3091 42.7458 23.8523 42.5586 24.2667 42.1917L28.9187 38.0625C29.008 37.9836 29.1216 37.9376 29.2407 37.9323C29.3597 37.927 29.477 37.9626 29.5729 38.0334L32.4187 40.1417C33.1097 40.6272 33.9393 40.8757 34.7833 40.85C35.6415 40.8305 36.4659 40.5122 37.1146 39.95L42.0083 35.6084C42.2135 35.4267 42.3809 35.2064 42.501 34.96C42.621 34.7137 42.6914 34.4461 42.708 34.1725C42.7247 33.899 42.6873 33.6249 42.5979 33.3658C42.5086 33.1067 42.3692 32.8677 42.1875 32.6625C42.0058 32.4573 41.7855 32.2899 41.5392 32.1699C41.2928 32.0498 41.0252 31.9795 40.7517 31.9628C40.4781 31.9462 40.204 31.9836 39.9449 32.0729C39.6858 32.1622 39.4469 32.3017 39.2417 32.4834Z" fill="#0B476D"/>
<path d="M29.8563 21.0894C29.8192 21.0372 29.771 20.9939 29.7151 20.9625C29.6593 20.9312 29.5972 20.9126 29.5333 20.9081L21.0625 20.254C20.9938 20.2482 20.9246 20.2588 20.8608 20.2849C20.7969 20.3109 20.7401 20.3517 20.695 20.4039C20.6499 20.4562 20.6178 20.5183 20.6013 20.5853C20.5848 20.6523 20.5843 20.7222 20.6 20.7894L22.4417 29.0831C22.456 29.1453 22.4834 29.2038 22.5223 29.2544C22.5611 29.3051 22.6103 29.3469 22.6667 29.3769C22.7231 29.4066 22.7853 29.4236 22.849 29.4268C22.9127 29.4301 22.9763 29.4194 23.0354 29.3956C24.7336 28.7175 26.245 27.6433 27.4438 26.2626C28.6426 24.8819 29.494 23.2346 29.9271 21.4581C29.9437 21.3953 29.946 21.3295 29.9337 21.2657C29.9214 21.2019 29.895 21.1416 29.8563 21.0894Z" fill="#0B476D"/>
<path d="M15.0188 7.93546C14.9588 7.95673 14.9041 7.9907 14.8585 8.03506C14.8128 8.07941 14.7773 8.13311 14.7544 8.19246C14.7314 8.25182 14.7216 8.31543 14.7255 8.37894C14.7294 8.44246 14.747 8.50438 14.7771 8.56046L19.4979 17.2917C19.5328 17.3561 19.5833 17.4107 19.6449 17.4504C19.7064 17.4901 19.777 17.5136 19.85 17.5188L29.7333 18.2834C29.7971 18.2885 29.8612 18.2796 29.9212 18.2574C29.9812 18.2351 30.0356 18.2001 30.0806 18.1547C30.1256 18.1092 30.1602 18.0545 30.1819 17.9944C30.2036 17.9342 30.2119 17.87 30.2062 17.8063C30.0598 16.065 29.5171 14.3803 28.6195 12.881C27.722 11.3817 26.4934 10.1075 25.0278 9.15596C23.5621 8.20441 21.8983 7.60068 20.1635 7.39094C18.4287 7.18121 16.6689 7.37102 15.0188 7.94588V7.93546Z" fill="#0B476D"/>
<path d="M12.1583 9.60009C12.096 9.58652 12.0314 9.58676 11.9691 9.6008C11.9069 9.61483 11.8484 9.64232 11.7979 9.68134C9.90614 11.1423 8.51861 13.1583 7.8296 15.4471C7.1406 17.7359 7.18461 20.1829 7.95547 22.4454C8.72634 24.708 10.1855 26.6728 12.1286 28.0648C14.0716 29.4568 16.4014 30.2064 18.7917 30.2084C19.0146 30.2084 19.2354 30.2084 19.4563 30.1897C19.52 30.1862 19.5821 30.1688 19.6383 30.1385C19.6945 30.1083 19.7433 30.066 19.7812 30.0147C19.8194 29.9637 19.8462 29.9052 19.8599 29.843C19.8735 29.7809 19.8737 29.7165 19.8604 29.6543L17.5542 19.2772C17.5453 19.2373 17.5313 19.1988 17.5125 19.1626L12.4542 9.82092C12.4238 9.76486 12.3816 9.71607 12.3306 9.67794C12.2795 9.63981 12.2207 9.61324 12.1583 9.60009Z" fill="#0B476D"/>
<path d="M38.5417 13.5417C39.6923 13.5417 40.625 12.6089 40.625 11.4583C40.625 10.3077 39.6923 9.375 38.5417 9.375C37.3911 9.375 36.4583 10.3077 36.4583 11.4583C36.4583 12.6089 37.3911 13.5417 38.5417 13.5417Z" fill="#0B476D"/>
<path d="M38.5417 19.7917C39.6923 19.7917 40.625 18.8589 40.625 17.7083C40.625 16.5577 39.6923 15.625 38.5417 15.625C37.3911 15.625 36.4583 16.5577 36.4583 17.7083C36.4583 18.8589 37.3911 19.7917 38.5417 19.7917Z" fill="#0B476D"/>
<path d="M38.5417 26.0417C39.6923 26.0417 40.625 25.1089 40.625 23.9583C40.625 22.8077 39.6923 21.875 38.5417 21.875C37.3911 21.875 36.4583 22.8077 36.4583 23.9583C36.4583 25.1089 37.3911 26.0417 38.5417 26.0417Z" fill="#0B476D"/>
</svg>
