<svg width="16" height="16" viewBox="0 0 16 16" fill="none" xmlns="http://www.w3.org/2000/svg">
<path d="M15.7038 5.81924C15.6326 5.62791 15.5047 5.46286 15.3372 5.34612C15.1697 5.22938 14.9706 5.16651 14.7665 5.16591H10.7085C10.6394 5.16596 10.572 5.14456 10.5157 5.10467C10.4593 5.06479 10.4167 5.00838 10.3938 4.94324L8.93712 0.814573C8.86577 0.623747 8.73783 0.459267 8.57044 0.343144C8.40305 0.22702 8.20418 0.164795 8.00045 0.164795C7.79672 0.164795 7.59785 0.22702 7.43046 0.343144C7.26307 0.459267 7.13513 0.623747 7.06378 0.814573L7.06045 0.82524L5.60712 4.94324C5.58423 5.00827 5.54174 5.0646 5.48551 5.10448C5.42927 5.14436 5.36206 5.16582 5.29312 5.16591H1.23378C1.02833 5.16575 0.827813 5.22889 0.659507 5.34672C0.4912 5.46455 0.363274 5.63137 0.293125 5.82448C0.222977 6.01758 0.214011 6.22761 0.267448 6.426C0.320886 6.62438 0.434132 6.80149 0.591784 6.93324L4.04778 9.79991C4.09948 9.84281 4.13701 9.90033 4.15545 9.96492C4.17389 10.0295 4.17238 10.0982 4.15112 10.1619L2.69912 14.5159C2.63201 14.7172 2.63069 14.9347 2.69533 15.1368C2.75998 15.3389 2.88724 15.5152 3.05871 15.6402C3.23019 15.7652 3.43698 15.8324 3.64918 15.8321C3.86138 15.8318 4.06799 15.7641 4.23912 15.6386L7.80312 13.0252C7.86027 12.9834 7.92927 12.9608 8.00012 12.9608C8.07096 12.9608 8.13997 12.9834 8.19712 13.0252L11.7598 15.6379C11.9308 15.7638 12.1375 15.832 12.3499 15.8325C12.5623 15.8331 12.7694 15.766 12.9411 15.641C13.1128 15.516 13.2403 15.3396 13.305 15.1373C13.3697 14.935 13.3684 14.7174 13.3011 14.5159L11.8491 10.1592C11.8279 10.0955 11.8263 10.0269 11.8448 9.96226C11.8632 9.89766 11.9008 9.84014 11.9525 9.79724L15.4151 6.92657C15.5708 6.79371 15.6819 6.61629 15.7335 6.41828C15.7851 6.22026 15.7747 6.01118 15.7038 5.81924Z" fill="white"/>
</svg>
