<svg width="68" height="68" viewBox="0 0 68 68" fill="none" xmlns="http://www.w3.org/2000/svg">
<path d="M60.1772 57.0804C60.0611 56.9644 59.9891 56.8115 59.9735 56.6481C59.958 56.4846 60 56.3209 60.0922 56.1851C62.072 53.2334 62.8823 49.6505 62.3654 46.1341C61.8486 42.6177 60.0415 39.4196 57.296 37.1624C54.5506 34.9053 51.0634 33.7507 47.5134 33.9236C43.9635 34.0964 40.6049 35.5843 38.0917 38.0974C35.5785 40.6106 34.0907 43.9692 33.9178 47.5192C33.745 51.0691 34.8996 54.5563 37.1567 57.3018C39.4138 60.0472 42.612 61.8543 46.1284 62.3712C49.6448 62.8881 53.2277 62.0777 56.1794 60.0979C56.3154 60.0063 56.479 59.9646 56.6423 59.9801C56.8055 59.9956 56.9584 60.0673 57.0747 60.1829L64.2572 67.3626C64.6727 67.7717 65.2324 68.0009 65.8155 68.0009C66.3986 68.0009 66.9583 67.7717 67.3739 67.3626C67.7846 66.9514 68.0153 66.394 68.0153 65.8128C68.0153 65.2316 67.7846 64.6741 67.3739 64.2629L60.1772 57.0804ZM48.2602 58.1373C46.3078 58.1373 44.3993 57.5583 42.776 56.4737C41.1527 55.389 39.8874 53.8473 39.1403 52.0435C38.3931 50.2398 38.1977 48.255 38.5785 46.3401C38.9594 44.4253 39.8996 42.6664 41.2801 41.2859C42.6606 39.9053 44.4196 38.9652 46.3344 38.5843C48.2493 38.2034 50.234 38.3989 52.0378 39.146C53.8415 39.8932 55.3832 41.1584 56.4679 42.7817C57.5526 44.4051 58.1315 46.3136 58.1315 48.2659C58.1285 50.8831 57.0876 53.3921 55.237 55.2427C53.3864 57.0933 50.8773 58.1343 48.2602 58.1373Z" fill="#0B476D"/>
<path d="M29.75 48.8495C29.7442 48.6683 29.6689 48.4963 29.5396 48.3691C29.4104 48.242 29.2371 48.1695 29.0558 48.1667H7.08333C6.70761 48.1667 6.34728 48.0174 6.0816 47.7517C5.81592 47.4861 5.66667 47.1257 5.66667 46.75V24.0833C5.66667 23.7076 5.81592 23.3473 6.0816 23.0816C6.34728 22.8159 6.70761 22.6667 7.08333 22.6667H58.0833C58.4591 22.6667 58.8194 22.8159 59.0851 23.0816C59.3507 23.3473 59.5 23.7076 59.5 24.0833V33.3115C59.4998 33.417 59.5234 33.5212 59.569 33.6164C59.6147 33.7116 59.6811 33.7952 59.7635 33.8612C61.3791 35.1731 62.7623 36.7478 63.8548 38.5192C63.9357 38.6508 64.0575 38.7524 64.2015 38.8085C64.3455 38.8645 64.5039 38.8719 64.6525 38.8295C64.8012 38.7872 64.9318 38.6973 65.0247 38.5738C65.1175 38.4502 65.1674 38.2997 65.1667 38.1452V22.6667C65.1667 21.1638 64.5696 19.7224 63.5069 18.6597C62.4442 17.597 61.0029 17 59.5 17H5.66667C4.16377 17 2.72243 17.597 1.65973 18.6597C0.597022 19.7224 0 21.1638 0 22.6667L0 48.1667C0 49.6696 0.597022 51.1109 1.65973 52.1736C2.72243 53.2363 4.16377 53.8333 5.66667 53.8333H29.6905C29.7994 53.8336 29.9068 53.8088 30.0045 53.7607C30.1022 53.7127 30.1876 53.6429 30.2539 53.5565C30.3202 53.4702 30.3658 53.3697 30.387 53.263C30.4082 53.1562 30.4045 53.046 30.3762 52.9408C30.0153 51.6047 29.8052 50.2324 29.75 48.8495Z" fill="#0B476D"/>
<path d="M14.1666 38.25C15.7314 38.25 16.9999 36.9815 16.9999 35.4167C16.9999 33.8519 15.7314 32.5834 14.1666 32.5834C12.6018 32.5834 11.3333 33.8519 11.3333 35.4167C11.3333 36.9815 12.6018 38.25 14.1666 38.25Z" fill="#0B476D"/>
<path d="M25.5001 38.25C27.0649 38.25 28.3334 36.9815 28.3334 35.4167C28.3334 33.8519 27.0649 32.5834 25.5001 32.5834C23.9353 32.5834 22.6667 33.8519 22.6667 35.4167C22.6667 36.9815 23.9353 38.25 25.5001 38.25Z" fill="#0B476D"/>
</svg>
