<svg width="54" height="54" viewBox="0 0 54 54" fill="none" xmlns="http://www.w3.org/2000/svg">
<g clip-path="url(#clip0)">
<path d="M27 0C21.6599 0 16.4397 1.58352 11.9996 4.55032C7.55949 7.51712 4.09883 11.7339 2.05526 16.6675C0.0116987 21.6012 -0.522991 27.03 0.51881 32.2674C1.56061 37.5049 4.13211 42.3159 7.90813 46.0919C11.6841 49.8679 16.4951 52.4394 21.7326 53.4812C26.9701 54.523 32.3989 53.9883 37.3325 51.9447C42.2661 49.9012 46.4829 46.4405 49.4497 42.0004C52.4165 37.5603 54 32.3401 54 27C53.9923 19.8415 51.1451 12.9785 46.0833 7.91667C41.0215 2.85486 34.1585 0.00774243 27 0V0ZM19.3095 20.25V36C19.309 36.3815 19.1793 36.7516 18.9415 37.0498C18.7037 37.3481 18.3718 37.557 18 37.6425C17.8731 37.6719 17.7433 37.687 17.613 37.6875C17.2997 37.6877 16.9925 37.6007 16.7259 37.4361C16.4592 37.2716 16.2436 37.0361 16.1033 36.756L12.5033 29.529C12.4468 29.4151 12.3535 29.3237 12.2385 29.2697C12.1235 29.2156 11.9936 29.2021 11.8699 29.2313C11.7462 29.2606 11.6361 29.3308 11.5575 29.4306C11.4788 29.5304 11.4363 29.6539 11.4368 29.781V36C11.4368 36.4476 11.259 36.8768 10.9425 37.1932C10.626 37.5097 10.1968 37.6875 9.74926 37.6875C9.30171 37.6875 8.87249 37.5097 8.55602 37.1932C8.23955 36.8768 8.06176 36.4476 8.06176 36V20.25C8.06522 19.8728 8.19496 19.5077 8.43025 19.2129C8.66554 18.918 8.99282 18.7105 9.35985 18.6235C9.72687 18.5365 10.1125 18.5749 10.4551 18.7327C10.7977 18.8905 11.0776 19.1585 11.25 19.494L14.85 26.721C14.9064 26.8349 14.9998 26.9263 15.1148 26.9803C15.2298 27.0344 15.3597 27.0479 15.4834 27.0187C15.607 26.9894 15.7172 26.9192 15.7958 26.8194C15.8745 26.7196 15.917 26.5961 15.9165 26.469V20.25C15.9165 19.8024 16.0943 19.3732 16.4108 19.0568C16.7272 18.7403 17.1565 18.5625 17.604 18.5625C18.0516 18.5625 18.4808 18.7403 18.7973 19.0568C19.1137 19.3732 19.2915 19.8024 19.2915 20.25H19.3095ZM21.2378 22.8757C21.239 21.7322 21.6938 20.6358 22.5024 19.8271C23.311 19.0185 24.4074 18.5637 25.551 18.5625H30.8003C31.2478 18.5625 31.677 18.7403 31.9935 19.0568C32.31 19.3732 32.4878 19.8024 32.4878 20.25C32.4878 20.6976 32.31 21.1268 31.9935 21.4432C31.677 21.7597 31.2478 21.9375 30.8003 21.9375H25.551C25.3025 21.9387 25.0646 22.0379 24.8889 22.2136C24.7132 22.3893 24.6139 22.6273 24.6128 22.8757V25.875C24.6128 26.0242 24.672 26.1673 24.7775 26.2727C24.883 26.3782 25.0261 26.4375 25.1753 26.4375H28.1768C28.6243 26.4375 29.0535 26.6153 29.37 26.9318C29.6865 27.2482 29.8643 27.6774 29.8643 28.125C29.8643 28.5726 29.6865 29.0018 29.37 29.3182C29.0535 29.6347 28.6243 29.8125 28.1768 29.8125H25.1753C25.0261 29.8125 24.883 29.8718 24.7775 29.9773C24.672 30.0827 24.6128 30.2258 24.6128 30.375V33.3743C24.6139 33.6227 24.7132 33.8607 24.8889 34.0364C25.0646 34.2121 25.3025 34.3113 25.551 34.3125H30.8003C31.2478 34.3125 31.677 34.4903 31.9935 34.8068C32.31 35.1232 32.4878 35.5524 32.4878 36C32.4878 36.4476 32.31 36.8768 31.9935 37.1932C31.677 37.5097 31.2478 37.6875 30.8003 37.6875H25.551C24.4074 37.6863 23.311 37.2315 22.5024 36.4229C21.6938 35.6142 21.239 34.5178 21.2378 33.3743V22.8757ZM42.9525 36.6007L41.7713 33.5295C41.7302 33.4239 41.6581 33.3331 41.5646 33.2691C41.4711 33.2051 41.3604 33.1709 41.247 33.1709C41.1337 33.1709 41.023 33.2051 40.9294 33.2691C40.8359 33.3331 40.7638 33.4239 40.7228 33.5295L39.5415 36.6007C39.4062 36.9516 39.1576 37.2472 38.8352 37.4406C38.5128 37.6341 38.1349 37.7143 37.7617 37.6685C37.3885 37.6228 37.0412 37.4537 36.7751 37.1881C36.5089 36.9225 36.3391 36.5756 36.2925 36.2025L34.3238 20.4525C34.2906 20.23 34.3022 20.0031 34.358 19.7852C34.4138 19.5672 34.5126 19.3626 34.6486 19.1834C34.7846 19.0042 34.9551 18.854 35.15 18.7417C35.3449 18.6293 35.5603 18.5571 35.7835 18.5292C36.0067 18.5013 36.2333 18.5183 36.4498 18.5792C36.6664 18.6401 36.8686 18.7437 37.0445 18.8839C37.2205 19.0242 37.3666 19.1981 37.4743 19.3956C37.582 19.5931 37.6492 19.8102 37.6718 20.034L38.529 26.883C38.5452 27.0069 38.6022 27.122 38.691 27.2099C38.7798 27.2978 38.8954 27.3537 39.0194 27.3687C39.1435 27.3836 39.2691 27.3568 39.3762 27.2925C39.4834 27.2282 39.5661 27.13 39.6113 27.0135L39.672 26.856C39.8173 26.5624 40.0417 26.3152 40.3201 26.1424C40.5984 25.9696 40.9194 25.878 41.247 25.878C41.5746 25.878 41.8957 25.9696 42.174 26.1424C42.4523 26.3152 42.6767 26.5624 42.822 26.856L42.8828 27.0135C42.9272 27.1311 43.0098 27.2305 43.1174 27.2957C43.225 27.3609 43.3513 27.3881 43.4761 27.3731C43.601 27.3581 43.7172 27.3016 43.8063 27.2128C43.8953 27.124 43.952 27.0078 43.9673 26.883L44.8223 20.034C44.8449 19.8102 44.912 19.5931 45.0197 19.3956C45.1274 19.1981 45.2736 19.0242 45.4495 18.8839C45.6254 18.7437 45.8276 18.6401 46.0442 18.5792C46.2607 18.5183 46.4873 18.5013 46.7105 18.5292C46.9338 18.5571 47.1492 18.6293 47.344 18.7417C47.5389 18.854 47.7094 19.0042 47.8454 19.1834C47.9814 19.3626 48.0802 19.5672 48.136 19.7852C48.1918 20.0031 48.2034 20.23 48.1703 20.4525L46.2015 36.2025C46.1554 36.5757 45.9857 36.9227 45.7194 37.1882C45.4531 37.4537 45.1056 37.6223 44.7323 37.6672C44.6644 37.6762 44.596 37.6807 44.5275 37.6807C44.1873 37.6817 43.8548 37.5797 43.5737 37.3882C43.2926 37.1966 43.076 36.9245 42.9525 36.6075V36.6007Z" fill="#0B476D"/>
</g>
<defs>
<clipPath id="clip0">
<rect width="54" height="54" fill="white"/>
</clipPath>
</defs>
</svg>
