<svg width="27" height="27" viewBox="0 0 27 27" fill="none" xmlns="http://www.w3.org/2000/svg">
<path d="M0 13.5C0 6.04416 6.04416 0 13.5 0C20.9558 0 27 6.04416 27 13.5C27 20.9558 20.9558 27 13.5 27C6.04416 27 0 20.9558 0 13.5Z" fill="#55ACEE"/>
<path d="M13.0957 10.973L13.124 11.4401L12.6519 11.3829C10.9332 11.1636 9.4318 10.42 8.157 9.17117L7.53377 8.55151L7.37324 9.0091C7.03329 10.0292 7.25048 11.1064 7.9587 11.831C8.33642 12.2314 8.25143 12.2886 7.59987 12.0502C7.37324 11.974 7.17493 11.9168 7.15605 11.9454C7.08995 12.0121 7.31658 12.8796 7.49599 13.2228C7.74151 13.6995 8.24199 14.1666 8.78968 14.4431L9.25239 14.6623L8.70469 14.6719C8.17589 14.6719 8.157 14.6814 8.21366 14.8816C8.40252 15.5013 9.14851 16.1591 9.9795 16.4451L10.565 16.6453L10.055 16.9503C9.2996 17.3889 8.41196 17.6367 7.52432 17.6558C7.09939 17.6653 6.75 17.7035 6.75 17.7321C6.75 17.8274 7.90204 18.3612 8.57249 18.571C10.5838 19.1906 12.9729 18.9237 14.7671 17.8655C16.0419 17.1124 17.3167 15.6157 17.9116 14.1666C18.2327 13.3944 18.5537 11.9835 18.5537 11.3066C18.5537 10.8681 18.582 10.8109 19.1108 10.2866C19.4225 9.9815 19.7152 9.64783 19.7719 9.5525C19.8663 9.37137 19.8568 9.37137 19.3753 9.53343C18.5726 9.81943 18.4593 9.7813 18.8559 9.3523C19.1486 9.04724 19.498 8.49431 19.498 8.33224C19.498 8.30364 19.3564 8.35131 19.1958 8.43711C19.0259 8.53244 18.6481 8.67544 18.3649 8.76124L17.8549 8.9233L17.3922 8.60871C17.1373 8.43711 16.7784 8.24644 16.5896 8.18924C16.108 8.05578 15.3714 8.07484 14.9371 8.22737C13.7567 8.65637 13.0107 9.76223 13.0957 10.973Z" fill="white"/>
</svg>
