<?xml version="1.0" standalone="no"?>
<!DOCTYPE svg PUBLIC "-//W3C//DTD SVG 20010904//EN"
 "http://www.w3.org/TR/2001/REC-SVG-20010904/DTD/svg10.dtd">
<svg version="1.0" xmlns="http://www.w3.org/2000/svg"
 width="260.000000pt" height="260.000000pt" viewBox="0 0 260.000000 260.000000"
 preserveAspectRatio="xMidYMid meet">
<metadata>
Created by potrace 1.11, written by Peter Selinger 2001-2013
</metadata>
<g transform="translate(0.000000,260.000000) scale(0.100000,-0.100000)"
fill="#000000" stroke="none">
<path d="M0 1300 l0 -1300 347 0 c345 0 380 3 445 36 14 8 37 14 50 14 15 0
32 11 46 30 33 44 75 62 136 58 50 -3 52 -2 94 44 50 54 77 126 87 236 7 61 5
74 -12 99 -11 15 -37 59 -56 97 -20 38 -39 62 -41 55 -4 -12 -33 -136 -68
-296 -9 -37 -17 -53 -28 -53 -18 0 -53 134 -112 429 -37 182 -36 189 43 346
47 93 51 107 60 206 15 181 53 309 141 481 47 93 130 217 189 286 l29 33 0
-426 c0 -360 2 -429 15 -441 8 -8 39 -52 70 -98 76 -115 77 -125 17 -416 l-49
-235 38 -3 37 -3 7 -67 c11 -113 33 -178 77 -223 21 -22 43 -51 48 -64 6 -16
17 -25 30 -25 26 0 57 -16 86 -42 14 -13 24 -16 29 -9 3 6 21 11 40 11 25 0
39 -7 55 -27 l22 -28 364 -3 364 -3 0 1300 0 1301 -1300 0 -1300 0 0 -1300z
m1787 -257 c56 -121 55 -147 -23 -493 -49 -217 -53 -230 -69 -230 -8 0 -15 3
-15 8 0 4 -18 81 -41 172 -22 91 -40 170 -40 175 -1 6 13 46 30 90 42 106 71
231 78 333 l6 82 20 -32 c11 -18 35 -65 54 -105z"/>
</g>
</svg>
