<?xml version="1.0" encoding="UTF-8"?>
<svg width="117px" height="27px" viewBox="0 0 117 27" version="1.1" xmlns="http://www.w3.org/2000/svg" xmlns:xlink="http://www.w3.org/1999/xlink">
    <!-- Generator: Sketch 49.3 (51167) - http://www.bohemiancoding.com/sketch -->
    <title>embark</title>
    <desc>Created with Sketch.</desc>
    <defs></defs>
    <g id="Page-1" stroke="none" stroke-width="1" fill="none" fill-rule="evenodd">
        <g id="Artboard-Copy-33" transform="translate(-128.000000, -39.000000)" fill="#FFFFFF">
            <g id="Group-2" transform="translate(128.000000, 39.000000)">
                <g id="Group-22">
                    <g id="Group-23">
                        <path d="M12.5366447,20.5985579 L16.1608075,22.0408267 C14.6568957,24.9253789 12.1668496,26.3676333 8.69059443,26.3676333 C6.02793091,26.3676333 3.91385709,25.5232365 2.34830956,23.8344175 C0.782762026,22.1455985 0,19.8959281 0,17.0853388 C0,14.3240582 0.782762026,12.0990417 2.34830956,10.4102227 C3.91385709,8.7214037 5.97862307,7.87700687 8.54266942,7.87700687 C11.2053329,7.87700687 13.245445,8.73989414 14.6630668,10.4656946 C16.0806886,12.191495 16.7894888,14.3363862 16.7894888,16.9004326 L16.7894888,18.0838327 L4.28982534,18.0838327 C4.36378821,19.5630902 4.74592401,20.7896228 5.43624418,21.7634673 C6.12656435,22.7373119 7.19900996,23.2242268 8.65361318,23.2242268 C10.4287222,23.2242268 11.7230531,22.3490126 12.5366447,20.5985579 Z M8.50568817,10.9464509 C7.29762787,10.9464509 6.33612491,11.3470771 5.62115044,12.1483416 C4.90617598,12.9496061 4.4870593,14.0035612 4.36378784,15.3102387 L12.573626,15.3102387 C12.5243174,13.9542527 12.1298547,12.8879705 11.3902259,12.1113603 C10.6505971,11.3347501 9.68909418,10.9464509 8.50568817,10.9464509 Z M19.1827042,25.886877 L19.1827042,8.35776316 L23.2136607,8.35776316 L23.2136607,11.0204134 C24.3724124,8.92479856 26.1105139,7.87700687 28.4280174,7.87700687 C29.660732,7.87700687 30.7393411,8.15436349 31.663877,8.70908506 C32.588413,9.26380663 33.2848863,10.0342417 33.7533178,11.0204134 C34.3203665,10.1575132 35.0969651,9.41789549 36.0831367,8.80153819 C37.0693084,8.1851809 38.1664079,7.87700687 39.3744682,7.87700687 C41.0509601,7.87700687 42.4439067,8.38857575 43.5533498,9.41172887 C44.662793,10.434882 45.2175062,11.8832999 45.2175062,13.7570261 L45.2175062,25.886877 L41.0016434,25.886877 L41.0016434,14.7925012 C41.0016434,13.6090952 40.7242867,12.7338809 40.1695652,12.1668322 C39.6148436,11.5997835 38.9183703,11.3162634 38.0801244,11.3162634 C37.0446441,11.3162634 36.1571029,11.7846879 35.4174742,12.721551 C34.6778454,13.6584141 34.3080366,14.952745 34.3080366,16.6045826 L34.3080366,25.886877 L30.0921738,25.886877 L30.0921738,14.7925012 C30.0921738,13.6090952 29.8086537,12.7338809 29.2416049,12.1668322 C28.6745562,11.5997835 27.9719195,11.3162634 27.1336735,11.3162634 C26.0981933,11.3162634 25.2168156,11.7846879 24.4895139,12.721551 C23.7622123,13.6584141 23.398567,14.952745 23.398567,16.6045826 L23.398567,25.886877 L19.1827042,25.886877 Z M58.6311349,7.87700687 C60.9239841,7.87700687 62.8161726,8.7214037 64.3077572,10.4102227 C65.7993419,12.0990417 66.545123,14.3363851 66.545123,17.1223201 C66.545123,19.9082551 65.7993419,22.1455985 64.3077572,23.8344175 C62.8161726,25.5232365 60.9239841,26.3676333 58.6311349,26.3676333 C56.0670886,26.3676333 54.1687366,25.3444956 52.936022,23.2981893 L52.936022,25.886877 L48.9050654,25.886877 L48.9050654,0 L53.1209282,0 L53.1209282,10.6136196 C54.4029514,8.78920199 56.2396686,7.87700687 58.6311349,7.87700687 Z M53.083947,16.2717513 L53.083947,17.9728889 C53.083947,19.6493808 53.558535,20.9128943 54.5077252,21.7634673 C55.4569154,22.6140404 56.5355245,23.0393206 57.7435848,23.0393206 C59.0995709,23.0393206 60.1905069,22.4846073 61.0164257,21.3751642 C61.8423445,20.265721 62.2552977,18.8481205 62.2552977,17.1223201 C62.2552977,15.3965197 61.8423445,13.9789191 61.0164257,12.869476 C60.1905069,11.7600329 59.0995709,11.2053196 57.7435848,11.2053196 C56.5355245,11.2053196 55.4569154,11.6305998 54.5077252,12.4811729 C53.558535,13.3317459 53.083947,14.5952594 53.083947,16.2717513 Z M79.8108267,25.886877 C79.5642838,25.4430998 79.4410142,24.6911552 79.4410142,23.6310206 C78.158991,25.4554382 76.2976199,26.3676333 73.856845,26.3676333 C72.081736,26.3676333 70.657972,25.9176992 69.5855103,25.0178176 C68.5130486,24.1179359 67.9768258,22.9037303 67.9768258,21.3751642 C67.9768258,20.2410668 68.2788363,19.2672368 68.8828665,18.4536452 C69.4868966,17.6400536 70.3374569,17.0052151 71.4345729,16.5491107 C72.5316889,16.0930063 73.7335676,15.7663418 75.0402451,15.5691075 C76.3469226,15.3718731 77.789177,15.2732575 79.3670517,15.2732575 L79.3670517,14.1638199 C79.3670517,13.2023025 79.0958585,12.4380309 78.5534641,11.8709822 C78.0110697,11.3039335 77.2098172,11.0204134 76.1496827,11.0204134 C75.0895481,11.0204134 74.2759687,11.2792795 73.70892,11.7970197 C73.1418713,12.3147598 72.8460242,12.9680887 72.8213699,13.7570261 L68.7534321,13.165326 C68.9260121,11.5134885 69.7211011,10.2191576 71.1387229,9.28229448 C72.5563447,8.34543139 74.2759558,7.87700687 76.2976077,7.87700687 C78.4671854,7.87700687 80.2052869,8.42555664 81.5119644,9.52267262 C82.8186418,10.6197886 83.4719708,12.1914761 83.4719708,14.2377824 L83.4719708,23.4830956 C83.4719708,24.2720329 83.6075673,25.0732854 83.8787645,25.886877 L79.8108267,25.886877 Z M75.0032638,23.2612081 C76.1866699,23.2612081 77.2098076,22.9098897 78.0727078,22.2072424 C78.935608,21.5045951 79.3670517,20.5739095 79.3670517,19.4151578 L79.3670517,17.9728889 C74.5348105,17.9728889 72.1187261,19.0206806 72.1187261,21.1162954 C72.1187261,21.8066156 72.3837558,22.3366749 72.9138231,22.7064893 C73.4438903,23.0763037 74.1403636,23.2612081 75.0032638,23.2612081 Z M98.3648496,8.28380065 L97.5142808,12.1668322 C96.9965406,11.723055 96.3185578,11.5011697 95.4803118,11.5011697 C94.3462144,11.5011697 93.3538941,11.9819211 92.503321,12.9434385 C91.6527479,13.9049559 91.2274678,15.2732486 91.2274678,17.0483576 L91.2274678,25.886877 L87.0116049,25.886877 L87.0116049,8.35776316 L90.968599,8.35776316 L90.968599,11.2053196 C91.9301164,8.98643336 93.6558909,7.87700687 96.1459744,7.87700687 C96.9842203,7.87700687 97.723838,8.01260344 98.3648496,8.28380065 Z M111.704516,25.886877 L105.750534,17.3811889 L103.975434,19.008364 L103.975434,25.886877 L99.7595711,25.886877 L99.7595711,0 L103.975434,0 L103.975434,14.6445762 L110.779984,8.35776316 L115.698491,8.35776316 L108.782997,14.7925012 L116.660004,25.886877 L111.704516,25.886877 Z" id="embark"></path>
                    </g>
                </g>
            </g>
        </g>
    </g>
</svg>