<svg width="200" height="200" viewBox="0 0 200 200" fill="none" xmlns="http://www.w3.org/2000/svg">
<path fill-rule="evenodd" clip-rule="evenodd" d="M54 72C38.536 72 26 84.5362 26 100C26 115.464 38.536 128 54 128C69.464 128 82 115.464 82 100C82 84.5362 69.464 72 54 72Z" fill="#4360DF"/>
<path fill-rule="evenodd" clip-rule="evenodd" d="M54.9403 98.7727C56.3463 98.9191 57.7523 99.0654 59.4809 98.9691C64.1643 98.708 67.0013 96.3042 66.8 92.7111C66.5948 89.0553 62.8205 86.803 59.0441 87.0136C52.8898 87.3565 48.3642 92.7597 47.8545 98.9353C48.6903 98.7395 49.57 98.6226 50.3996 98.5764C52.1283 98.4801 53.5343 98.6264 54.9403 98.7727ZM42.8758 106.765C43.07 110.116 46.6457 112.181 50.2235 111.987C56.0538 111.673 60.3414 106.72 60.8241 101.059C60.0323 101.239 59.199 101.346 58.413 101.388C56.7753 101.477 55.4432 101.342 54.1111 101.208C52.7791 101.074 51.447 100.94 49.8094 101.028C45.3727 101.268 42.6848 103.471 42.8758 106.765Z" fill="white"/>
<path d="M92.8965 104.649H96.9438C96.9438 105.335 97.1372 105.827 97.5239 106.126C97.9106 106.425 98.4072 106.574 99.0137 106.574C99.5146 106.574 99.9233 106.482 100.24 106.297C100.565 106.104 100.727 105.792 100.727 105.361C100.727 105.106 100.657 104.9 100.517 104.742C100.385 104.575 100.178 104.43 99.897 104.307C99.6157 104.175 99.2554 104.043 98.8159 103.911C98.3765 103.779 97.8491 103.612 97.2339 103.41C96.6802 103.234 96.1572 103.054 95.665 102.87C95.1816 102.676 94.7554 102.439 94.3862 102.158C94.0171 101.877 93.7271 101.534 93.5161 101.129C93.314 100.725 93.2129 100.224 93.2129 99.6265C93.2129 98.9409 93.3491 98.3477 93.6216 97.8467C93.894 97.3457 94.2764 96.9326 94.7686 96.6074C95.2607 96.2822 95.8496 96.0405 96.5352 95.8823C97.2207 95.7153 97.9766 95.6318 98.8027 95.6318C99.8135 95.6318 100.684 95.7461 101.413 95.9746C102.143 96.2031 102.74 96.5151 103.206 96.9106C103.672 97.3062 104.015 97.772 104.234 98.3081C104.463 98.8442 104.577 99.4199 104.577 100.035H100.503C100.503 99.499 100.363 99.0815 100.081 98.7827C99.8091 98.4839 99.3916 98.3345 98.8291 98.3345C98.3984 98.3345 98.0293 98.4312 97.7217 98.6245C97.4141 98.8091 97.2603 99.0903 97.2603 99.4683C97.2603 99.7231 97.3306 99.9297 97.4712 100.088C97.6206 100.237 97.8359 100.374 98.1172 100.497C98.3984 100.62 98.7456 100.747 99.1587 100.879C99.5718 101.002 100.046 101.151 100.582 101.327C101.163 101.485 101.703 101.661 102.204 101.855C102.705 102.048 103.144 102.285 103.522 102.566C103.909 102.839 104.212 103.186 104.432 103.608C104.661 104.021 104.775 104.548 104.775 105.19C104.775 105.946 104.617 106.592 104.3 107.128C103.984 107.655 103.558 108.086 103.021 108.42C102.494 108.754 101.879 108.991 101.176 109.132C100.473 109.281 99.7344 109.356 98.9609 109.356C97.0361 109.356 95.542 108.956 94.4785 108.156C93.4238 107.348 92.8965 106.179 92.8965 104.649Z" fill="black"/>
<path d="M105.803 99.0596V95.9878H107.847V92.125H111.96V95.9878H114.926V99.0596H111.96V103.713C111.96 104.197 112.004 104.584 112.092 104.874C112.18 105.155 112.303 105.379 112.461 105.546C112.628 105.704 112.826 105.81 113.054 105.862C113.291 105.906 113.555 105.928 113.845 105.928C114.021 105.928 114.245 105.924 114.518 105.915C114.79 105.898 115.027 105.871 115.229 105.836V109C114.922 109.053 114.535 109.101 114.069 109.145C113.612 109.189 113.072 109.211 112.448 109.211C111.964 109.211 111.455 109.176 110.918 109.105C110.382 109.035 109.886 108.851 109.429 108.552C108.972 108.253 108.594 107.796 108.295 107.181C107.996 106.557 107.847 105.704 107.847 104.623V99.0596H105.803Z" fill="black"/>
<path d="M116.416 102.487C116.416 101.512 116.57 100.606 116.877 99.7715C117.194 98.9365 117.629 98.2202 118.183 97.6226C118.745 97.0161 119.4 96.5371 120.147 96.1855C120.894 95.834 121.703 95.6582 122.573 95.6582C123.548 95.6582 124.392 95.8647 125.104 96.2778C125.825 96.6909 126.365 97.2139 126.726 97.8467V95.9878H130.852V109H126.726V107.168C126.4 107.765 125.877 108.275 125.157 108.697C124.436 109.119 123.575 109.33 122.573 109.33C121.711 109.33 120.903 109.154 120.147 108.802C119.4 108.451 118.745 107.972 118.183 107.365C117.629 106.759 117.194 106.038 116.877 105.203C116.57 104.368 116.416 103.463 116.416 102.487ZM120.516 102.487C120.516 102.936 120.591 103.366 120.74 103.779C120.898 104.184 121.109 104.535 121.373 104.834C121.646 105.124 121.971 105.361 122.349 105.546C122.727 105.722 123.148 105.81 123.614 105.81C124.08 105.81 124.502 105.722 124.88 105.546C125.267 105.361 125.592 105.124 125.856 104.834C126.128 104.535 126.339 104.184 126.488 103.779C126.646 103.375 126.726 102.944 126.726 102.487C126.726 102.039 126.646 101.617 126.488 101.222C126.339 100.826 126.128 100.475 125.856 100.167C125.592 99.8594 125.271 99.6177 124.893 99.4419C124.515 99.2661 124.089 99.1782 123.614 99.1782C123.148 99.1782 122.727 99.2661 122.349 99.4419C121.971 99.6177 121.646 99.8594 121.373 100.167C121.109 100.475 120.898 100.826 120.74 101.222C120.591 101.617 120.516 102.039 120.516 102.487Z" fill="black"/>
<path d="M133.067 99.0596V95.9878H135.11V92.125H139.224V95.9878H142.19V99.0596H139.224V103.713C139.224 104.197 139.268 104.584 139.355 104.874C139.443 105.155 139.566 105.379 139.725 105.546C139.892 105.704 140.089 105.81 140.318 105.862C140.555 105.906 140.819 105.928 141.109 105.928C141.285 105.928 141.509 105.924 141.781 105.915C142.054 105.898 142.291 105.871 142.493 105.836V109C142.186 109.053 141.799 109.101 141.333 109.145C140.876 109.189 140.335 109.211 139.711 109.211C139.228 109.211 138.718 109.176 138.182 109.105C137.646 109.035 137.149 108.851 136.692 108.552C136.235 108.253 135.857 107.796 135.559 107.181C135.26 106.557 135.11 105.704 135.11 104.623V99.0596H133.067Z" fill="black"/>
<path d="M144.537 103.713V95.9878H148.637V102.659C148.637 103.59 148.804 104.351 149.138 104.939C149.472 105.519 150.069 105.81 150.931 105.81C151.792 105.81 152.425 105.515 152.829 104.926C153.242 104.329 153.449 103.524 153.449 102.514V95.9878H157.575V109H153.449V107.141C153.088 107.827 152.539 108.363 151.801 108.749C151.062 109.136 150.179 109.33 149.151 109.33C148.254 109.33 147.516 109.189 146.936 108.908C146.365 108.626 145.899 108.27 145.539 107.84C145.125 107.339 144.853 106.759 144.721 106.1C144.598 105.44 144.537 104.645 144.537 103.713Z" fill="black"/>
<path d="M160.238 104.649H164.286C164.286 105.335 164.479 105.827 164.866 106.126C165.252 106.425 165.749 106.574 166.355 106.574C166.856 106.574 167.265 106.482 167.582 106.297C167.907 106.104 168.069 105.792 168.069 105.361C168.069 105.106 167.999 104.9 167.858 104.742C167.727 104.575 167.52 104.43 167.239 104.307C166.958 104.175 166.597 104.043 166.158 103.911C165.718 103.779 165.191 103.612 164.576 103.41C164.022 103.234 163.499 103.054 163.007 102.87C162.523 102.676 162.097 102.439 161.728 102.158C161.359 101.877 161.069 101.534 160.858 101.129C160.656 100.725 160.555 100.224 160.555 99.6265C160.555 98.9409 160.691 98.3477 160.963 97.8467C161.236 97.3457 161.618 96.9326 162.11 96.6074C162.603 96.2822 163.191 96.0405 163.877 95.8823C164.562 95.7153 165.318 95.6318 166.145 95.6318C167.155 95.6318 168.025 95.7461 168.755 95.9746C169.484 96.2031 170.082 96.5151 170.548 96.9106C171.014 97.3062 171.356 97.772 171.576 98.3081C171.805 98.8442 171.919 99.4199 171.919 100.035H167.845C167.845 99.499 167.705 99.0815 167.423 98.7827C167.151 98.4839 166.733 98.3345 166.171 98.3345C165.74 98.3345 165.371 98.4312 165.063 98.6245C164.756 98.8091 164.602 99.0903 164.602 99.4683C164.602 99.7231 164.672 99.9297 164.813 100.088C164.962 100.237 165.178 100.374 165.459 100.497C165.74 100.62 166.087 100.747 166.5 100.879C166.914 101.002 167.388 101.151 167.924 101.327C168.504 101.485 169.045 101.661 169.546 101.855C170.047 102.048 170.486 102.285 170.864 102.566C171.251 102.839 171.554 103.186 171.774 103.608C172.002 104.021 172.117 104.548 172.117 105.19C172.117 105.946 171.958 106.592 171.642 107.128C171.326 107.655 170.899 108.086 170.363 108.42C169.836 108.754 169.221 108.991 168.518 109.132C167.814 109.281 167.076 109.356 166.303 109.356C164.378 109.356 162.884 108.956 161.82 108.156C160.766 107.348 160.238 106.179 160.238 104.649Z" fill="black"/>
</svg>
