<svg width="200" height="200" viewBox="0 0 200 200" fill="none" xmlns="http://www.w3.org/2000/svg">
<path d="M147.987 80.6826C147.892 82.0454 147.859 83.417 147.692 84.7698C145.923 99.1352 139.223 110.646 127.461 119.075C118.675 125.373 108.758 128.313 97.9576 127.939C85.4676 127.51 74.6996 122.861 65.6736 114.218C65.5905 114.138 65.5925 113.82 65.6736 113.734C76.9332 102.455 88.2044 91.1864 99.4873 79.9295C99.7532 79.6859 100.097 79.5449 100.457 79.5315C116.301 79.5118 132.144 79.5062 147.987 79.5147V80.6826Z" fill="#020202"/>
<path d="M100.68 31C102.012 31.1012 103.346 31.1601 104.674 31.3035C112.446 32.146 119.604 34.7117 126.148 39.0008C126.192 39.0342 126.235 39.0699 126.275 39.108L122.139 43.2361C121.238 44.1346 120.344 45.0391 119.432 45.9262C119.375 45.9635 119.309 45.9861 119.241 45.992C119.172 45.998 119.104 45.9871 119.04 45.9604C112.453 42.1703 105.362 40.4271 97.7683 40.7308C80.7757 41.4156 65.9621 53.45 61.8876 69.9521C59.3657 80.1767 60.7687 89.8901 65.9621 99.0581C66.0117 99.1452 66.0144 99.3375 65.9547 99.3931C63.7003 101.664 61.4381 103.929 59.168 106.189C59.1459 106.211 59.1184 106.229 59.0668 106.27C58.8531 105.939 58.638 105.619 58.4357 105.292C52.8322 96.2387 50.3598 86.3986 51.1598 75.7773C52.8275 53.6979 69.262 35.6091 91.1304 31.7679C93.3415 31.3799 95.6028 31.2814 97.84 31.0489L98.297 31H100.68Z" fill="#020202"/>
<path d="M125.259 60.2682C125.263 58.2518 125.966 56.299 127.247 54.7423C128.529 53.1856 130.31 52.1211 132.288 51.7301C134.266 51.339 136.319 51.6455 138.097 52.5975C139.874 53.5494 141.267 55.0879 142.038 56.9511C142.809 58.8143 142.91 60.8871 142.324 62.8167C141.739 64.7462 140.503 66.4132 138.827 67.5341C137.151 68.6549 135.138 69.1602 133.131 68.964C131.124 68.7677 129.247 67.8821 127.82 66.4579C127.007 65.6452 126.363 64.6802 125.923 63.6181C125.484 62.556 125.258 61.4176 125.259 60.2682V60.2682Z" fill="#020202"/>
<path d="M64.9366 141.427C64.989 141.439 65.042 141.447 65.0954 141.452C68.4696 141.621 71.3796 142.887 73.8379 145.2C73.8942 145.256 73.9545 145.312 74.0001 145.354L72.1092 147.25C72.0308 147.178 71.9323 147.088 71.8352 146.997C70.6914 145.938 69.3325 145.138 67.8512 144.652C67.2099 144.444 66.551 144.295 65.8827 144.206C65.1823 144.118 64.4753 144.096 63.7707 144.139C63.0087 144.183 62.2541 144.314 61.5214 144.528C60.895 144.706 60.286 144.94 59.7023 145.229C58.9016 145.618 58.1554 146.111 57.4825 146.694C57.2225 146.922 56.9659 147.155 56.7234 147.401C56.239 147.895 55.8056 148.437 55.4296 149.017C55.0687 149.571 54.7592 150.156 54.5049 150.766C54.1805 151.535 53.9501 152.341 53.8188 153.166C53.7625 153.515 53.7239 153.867 53.7029 154.222C53.6755 154.643 53.6699 155.066 53.6861 155.488C53.7215 156.218 53.8338 156.943 54.0212 157.65C54.4417 159.264 55.2299 160.759 56.324 162.018C58.1802 164.158 60.8035 165.481 63.6273 165.703C64.1476 165.741 64.6698 165.744 65.1905 165.714C66.0336 165.664 66.8675 165.512 67.6736 165.26C68.2264 165.09 68.7642 164.875 69.2817 164.617C70.9923 163.767 72.4483 162.48 73.5029 160.888C74.0954 159.996 74.5503 159.021 74.8523 157.994C74.8798 157.901 74.9086 157.806 74.9394 157.689C74.5816 157.685 74.2466 157.689 73.9116 157.689H61.7794L64.5265 154.936H77.976V155.125C77.9016 158.412 76.8035 161.311 74.648 163.795C72.7237 166.01 70.3075 167.427 67.4492 168.09C66.6999 168.257 65.9378 168.362 65.1711 168.402C64.5285 168.44 63.8839 168.426 63.2434 168.361C60.2953 168.069 57.7023 166.954 55.4939 164.978C53.3464 163.057 51.9655 160.676 51.3216 157.869C51.1367 157.07 51.0312 156.255 51.0067 155.436C50.9042 151.86 52.0117 148.706 54.3642 146.012C56.2644 143.836 58.6484 142.439 61.4605 141.774C62.1484 141.615 62.8475 141.511 63.5516 141.46C63.6541 141.452 63.7587 141.456 63.8619 141.449C63.9148 141.443 63.9677 141.435 64.02 141.425L64.9366 141.427Z" fill="#020202"/>
<path d="M148 168.423H145.311V157.696H137.204V168.398C137.097 168.429 134.703 168.438 134.519 168.411V152.29H137.199V154.904C137.312 154.934 145.047 154.945 145.306 154.916V146.915C145.344 146.908 145.381 146.903 145.419 146.9H147.93C147.952 146.9 147.974 146.904 147.997 146.906L148 168.423Z" fill="#020202"/>
<path d="M120.993 157.679H110.255L107.508 154.932H117.894C117.52 153.867 116.925 152.893 116.148 152.074C114.903 150.764 113.386 149.943 111.604 149.641C109.84 149.34 108.026 149.63 106.444 150.467C104.863 151.304 103.602 152.641 102.859 154.269C102.116 155.897 101.932 157.724 102.335 159.468C102.739 161.211 103.707 162.772 105.09 163.908C106.698 165.221 108.549 165.839 110.618 165.745C112.688 165.65 114.456 164.85 115.938 163.429L117.802 165.292C115.141 168.088 110.088 169.615 105.413 167.27C103.042 166.081 101.194 164.057 100.223 161.588C99.2529 159.12 99.2283 156.379 100.154 153.894C101.08 151.408 102.892 149.351 105.241 148.119C107.59 146.887 110.312 146.566 112.883 147.218C118.338 148.611 121.092 153.527 120.993 157.679Z" fill="#020202"/>
<path d="M88.8097 162.972L98.0836 146.91H101.157C101.16 146.913 101.162 146.917 101.164 146.922C101.164 146.926 101.168 146.932 101.164 146.935C101.158 146.952 101.151 146.968 101.143 146.984L88.7702 168.416H86.0901V146.933L86.1001 146.92C86.1034 146.917 86.1073 146.915 86.1115 146.914C86.1288 146.909 86.1465 146.906 86.1644 146.904H88.7018C88.7244 146.906 88.7467 146.91 88.7688 146.915V162.965L88.8097 162.972Z" fill="#020202"/>
<path d="M126.408 168.415H123.716V149.528C123.533 149.518 123.359 149.528 123.185 149.523H120.527L119.003 146.91H137.192V149.523H126.405L126.408 168.415Z" fill="#020202"/>
<path d="M83.3684 168.415H80.6936V152.29H83.3557L83.3624 152.297C83.3624 152.301 83.3704 152.304 83.3704 152.307C83.3704 157.651 83.3722 162.996 83.3758 168.34C83.3751 168.362 83.3717 168.384 83.3684 168.415Z" fill="#020202"/>
<path d="M82.033 146.901C82.3417 146.904 82.6399 147.013 82.8771 147.211C83.1143 147.408 83.2758 147.682 83.3342 147.985C83.3926 148.288 83.3443 148.602 83.1974 148.873C83.0506 149.145 82.8143 149.357 82.5287 149.474C82.243 149.591 81.9257 149.605 81.6307 149.515C81.3356 149.424 81.0809 149.234 80.91 148.977C80.739 148.721 80.6623 148.412 80.6928 148.105C80.7234 147.798 80.8593 147.511 81.0776 147.293C81.203 147.168 81.3521 147.069 81.5161 147.001C81.6801 146.934 81.8558 146.9 82.033 146.901V146.901Z" fill="#020202"/>
</svg>
