<svg width="200" height="200" viewBox="0 0 200 200" fill="none" xmlns="http://www.w3.org/2000/svg">
<path d="M165 52H34.3589V100.639H165V52Z" fill="#A8E4AD"/>
<path d="M165 100.361H34.3589V149H165V100.361Z" fill="#2B333E"/>
<path d="M64.3794 64.3117L64.4509 64.1693H70.5373C74.6106 64.1693 76.6633 64.1851 76.6951 64.2168C76.7906 64.3751 76.8543 64.8421 76.8859 65.618C76.9177 66.3938 76.9018 67.0033 76.8384 67.4467C76.7588 67.89 76.711 68.1275 76.6951 68.1591C76.6633 68.1908 75.2949 68.2066 72.59 68.2066C71.8897 68.2066 71.2135 68.2146 70.561 68.2304C69.9088 68.2304 69.3996 68.2383 69.0337 68.2541C68.6834 68.2541 68.5164 68.2621 68.5323 68.2779C68.6438 68.4521 68.7075 68.9983 68.7234 69.9166C68.7393 70.8191 68.6994 71.4999 68.6041 71.9591C68.5723 72.1649 68.5723 72.3707 68.6041 72.5766C68.7153 73.0516 68.7631 73.7403 68.7471 74.6428C68.7312 75.5453 68.6597 76.0836 68.5323 76.2577C68.5164 76.2736 68.6834 76.2894 69.0337 76.3052C69.3996 76.3052 69.9088 76.3132 70.561 76.329C71.2135 76.329 71.8897 76.329 72.59 76.329C75.2949 76.329 76.6633 76.3448 76.6951 76.3765C76.7906 76.5348 76.8543 77.0019 76.8859 77.7777C76.9177 78.5535 76.9018 79.1631 76.8384 79.6064C76.7588 80.0497 76.711 80.2873 76.6951 80.319C76.6633 80.3507 75.2949 80.3665 72.59 80.3665H68.5323L68.5801 80.5803C68.6915 80.9602 68.7393 81.6409 68.7234 82.6225C68.7234 83.5884 68.6675 84.1662 68.5564 84.3563C68.5404 84.3722 68.5323 84.4116 68.5323 84.475C68.5483 84.5225 68.5642 84.5781 68.5801 84.6412C68.6915 85.0214 68.7393 85.7021 68.7234 86.6838C68.7234 87.6496 68.6675 88.2274 68.5564 88.4175C68.5245 88.4492 68.5323 88.5362 68.5801 88.6788C68.6915 89.0904 68.7393 89.795 68.7234 90.7925C68.7234 91.79 68.6597 92.352 68.5323 92.4787C68.5005 92.5104 67.8005 92.5263 66.4321 92.5263L64.4032 92.5024L64.3557 92.3125C64.2442 91.9006 64.1884 91.2753 64.1884 90.4362C64.2043 89.5812 64.268 88.9954 64.3794 88.6788C64.4113 88.552 64.4113 88.4095 64.3794 88.2513C64.268 87.8239 64.2124 87.1982 64.2124 86.375C64.2124 85.5359 64.268 84.95 64.3794 84.6176C64.4113 84.4908 64.4113 84.3563 64.3794 84.2137C64.268 83.7863 64.2124 83.1531 64.2124 82.3138C64.2124 81.4747 64.268 80.8888 64.3794 80.5564C64.4113 80.4296 64.4113 80.2951 64.3794 80.1528C64.268 79.7252 64.2124 79.0998 64.2124 78.2764C64.2124 77.4373 64.268 76.8515 64.3794 76.519C64.4113 76.3923 64.4113 76.2498 64.3794 76.0915C64.268 75.664 64.2124 75.0386 64.2124 74.2153C64.2124 73.3761 64.268 72.7903 64.3794 72.4578C64.4113 72.3311 64.4113 72.1966 64.3794 72.0541C64.268 71.6266 64.2124 70.9933 64.2124 70.1541C64.2124 69.315 64.268 68.7291 64.3794 68.3966C64.4113 68.27 64.4113 68.1354 64.3794 67.9929C64.268 67.5496 64.2124 66.9004 64.2124 66.0455C64.2124 65.1905 64.268 64.6126 64.3794 64.3117ZM83.3541 64.3117L83.4258 64.1693H85.4545C86.7911 64.1693 87.4751 64.1851 87.5069 64.2168C87.5388 64.2484 87.5706 64.3434 87.6025 64.5017C87.8094 65.5942 87.8013 66.7263 87.5787 67.8979C87.5469 68.1196 87.5469 68.3254 87.5787 68.5154C87.6583 68.9271 87.698 69.505 87.698 70.2491C87.698 70.9774 87.6583 71.5474 87.5787 71.9591C87.5469 72.1649 87.5469 72.3707 87.5787 72.5766C87.6583 72.9882 87.698 73.5661 87.698 74.3103C87.698 75.0544 87.6583 75.6244 87.5787 76.0202C87.5469 76.2261 87.5469 76.424 87.5787 76.614C87.674 77.0731 87.7139 77.7619 87.698 78.6802C87.698 79.5827 87.6424 80.1211 87.531 80.2951C87.515 80.3109 87.5069 80.3507 87.5069 80.4138C87.5229 80.4613 87.5388 80.5169 87.5547 80.5803C87.6662 80.9602 87.7139 81.6409 87.698 82.6225C87.698 83.5884 87.6424 84.1662 87.531 84.3563C87.515 84.3722 87.5069 84.4116 87.5069 84.475C87.5229 84.5225 87.5388 84.5781 87.5547 84.6412C87.6662 85.0373 87.7139 85.7179 87.698 86.6838C87.6821 87.6496 87.6184 88.2274 87.5069 88.4175C87.491 88.4334 87.6899 88.4492 88.1038 88.4651C88.5175 88.4651 89.106 88.4728 89.87 88.4887C90.6336 88.4887 91.4213 88.4887 92.2327 88.4887C95.3993 88.4887 96.9984 88.5045 97.0303 88.5362C97.1096 88.6788 97.1655 89.1457 97.1973 89.9376C97.2451 90.7133 97.237 91.2992 97.1733 91.695C97.1574 91.7425 97.1415 91.8217 97.1255 91.9323C97.1096 92.0591 97.1018 92.1383 97.1018 92.17C97.0699 92.3439 97.0381 92.4471 97.0063 92.4787C96.9744 92.5104 94.6991 92.5263 90.1803 92.5263L83.4018 92.5024L83.3303 92.3125C83.2189 91.9006 83.1633 91.2753 83.1633 90.4362C83.1792 89.5812 83.2426 88.9954 83.3541 88.6788C83.3859 88.552 83.3859 88.4095 83.3541 88.2513C83.2426 87.8239 83.187 87.1982 83.187 86.375C83.187 85.5359 83.2426 84.95 83.3541 84.6176C83.3859 84.4908 83.3859 84.3563 83.3541 84.2137C83.2426 83.7863 83.187 83.1531 83.187 82.3138C83.187 81.4747 83.2426 80.8888 83.3541 80.5564C83.3859 80.4296 83.3859 80.2951 83.3541 80.1528C83.2426 79.7252 83.187 79.0998 83.187 78.2764C83.187 77.4373 83.2426 76.8515 83.3541 76.519C83.3859 76.3923 83.3859 76.2498 83.3541 76.0915C83.2426 75.664 83.187 75.0386 83.187 74.2153C83.187 73.3761 83.2426 72.7903 83.3541 72.4578C83.3859 72.3311 83.3859 72.1966 83.3541 72.0541C83.2426 71.6266 83.187 70.9933 83.187 70.1541C83.187 69.315 83.2426 68.7291 83.3541 68.3966C83.3859 68.27 83.3859 68.1354 83.3541 67.9929C83.2426 67.5496 83.187 66.9004 83.187 66.0455C83.187 65.1905 83.2426 64.6126 83.3541 64.3117ZM105.05 64.3117L105.121 64.1693H111.207C115.281 64.1693 117.333 64.1851 117.365 64.2168C117.461 64.3751 117.524 64.8421 117.556 65.618C117.588 66.3938 117.572 67.0033 117.508 67.4467C117.429 67.89 117.381 68.1275 117.365 68.1591C117.333 68.1908 115.965 68.2066 113.26 68.2066C112.56 68.2066 111.884 68.2146 111.231 68.2304C110.579 68.2304 110.07 68.2383 109.704 68.2541C109.354 68.2541 109.187 68.2621 109.203 68.2779C109.314 68.4521 109.378 68.9983 109.393 69.9166C109.409 70.8191 109.37 71.4999 109.274 71.9591C109.242 72.1649 109.242 72.3707 109.274 72.5766C109.386 73.0516 109.433 73.7403 109.417 74.6428C109.402 75.5453 109.33 76.0836 109.203 76.2577C109.187 76.2736 109.354 76.2894 109.704 76.3052C110.07 76.3052 110.579 76.3132 111.231 76.329C111.884 76.329 112.56 76.329 113.26 76.329C115.965 76.329 117.333 76.3448 117.365 76.3765C117.461 76.5348 117.524 77.0019 117.556 77.7777C117.588 78.5535 117.572 79.1631 117.508 79.6064C117.429 80.0497 117.381 80.2873 117.365 80.319C117.333 80.3507 115.965 80.3665 113.26 80.3665H109.203L109.25 80.5803C109.362 80.9602 109.409 81.6409 109.393 82.6225C109.393 83.5884 109.338 84.1662 109.226 84.3563C109.21 84.3722 109.203 84.4116 109.203 84.475C109.219 84.5225 109.235 84.5781 109.25 84.6412C109.362 85.0373 109.409 85.7179 109.393 86.6838C109.378 87.6496 109.314 88.2274 109.203 88.4175C109.187 88.4334 109.354 88.4492 109.704 88.4651C110.07 88.4651 110.579 88.4728 111.231 88.4887C111.884 88.4887 112.56 88.4887 113.26 88.4887C115.965 88.4887 117.333 88.5045 117.365 88.5362C117.445 88.6788 117.501 89.1457 117.532 89.9376C117.58 90.7133 117.572 91.2992 117.508 91.695C117.493 91.7425 117.477 91.8217 117.461 91.9323C117.445 92.0591 117.437 92.1383 117.437 92.17C117.405 92.3439 117.373 92.4471 117.341 92.4787C117.31 92.5104 115.257 92.5263 111.184 92.5263L105.074 92.5024L105.026 92.3125C104.914 91.9006 104.859 91.2753 104.859 90.4362C104.875 89.5812 104.938 88.9954 105.05 88.6788C105.081 88.552 105.081 88.4095 105.05 88.2513C104.938 87.8239 104.882 87.1982 104.882 86.375C104.882 85.5359 104.938 84.95 105.05 84.6176C105.081 84.4908 105.081 84.3563 105.05 84.2137C104.938 83.7863 104.882 83.1531 104.882 82.3138C104.882 81.4747 104.938 80.8888 105.05 80.5564C105.081 80.4296 105.081 80.2951 105.05 80.1528C104.938 79.7252 104.882 79.0998 104.882 78.2764C104.882 77.4373 104.938 76.8515 105.05 76.519C105.081 76.3923 105.081 76.2498 105.05 76.0915C104.938 75.664 104.882 75.0386 104.882 74.2153C104.882 73.3761 104.938 72.7903 105.05 72.4578C105.081 72.3311 105.081 72.1966 105.05 72.0541C104.938 71.6266 104.882 70.9933 104.882 70.1541C104.882 69.315 104.938 68.7291 105.05 68.3966C105.081 68.27 105.081 68.1354 105.05 67.9929C104.938 67.5496 104.882 66.9004 104.882 66.0455C104.882 65.1905 104.938 64.6126 105.05 64.3117ZM122.807 64.3117L122.879 64.1693H124.907C126.26 64.1693 126.952 64.1851 126.984 64.2168C127.079 64.3751 127.143 64.8421 127.175 65.618C127.207 66.3938 127.183 67.0033 127.103 67.4467C127.087 67.5258 127.071 67.5971 127.056 67.6604C127.056 67.7238 127.047 67.7792 127.032 67.8267C127.032 67.8583 127.024 67.8979 127.008 67.9454C127.008 67.9771 127.008 68.0088 127.008 68.0404C127.008 68.0563 127.008 68.0721 127.008 68.0879C127.008 68.1038 127 68.1196 126.984 68.1354V68.1591C126.952 68.1908 127.167 68.2066 127.628 68.2066C128.042 68.2066 128.273 68.2304 128.321 68.2779C128.416 68.4362 128.48 68.9033 128.511 69.6791C128.543 70.4391 128.527 71.0408 128.464 71.4841C128.384 71.9433 128.336 72.1886 128.321 72.2203C128.289 72.252 128.504 72.2678 128.965 72.2678C129.41 72.2678 129.649 72.2836 129.681 72.3153C129.776 72.4736 129.84 72.9407 129.872 73.7166C129.904 74.4924 129.888 75.1019 129.824 75.5453C129.745 75.9886 129.697 76.2261 129.681 76.2577L129.752 76.2815C129.784 76.2815 129.84 76.2894 129.92 76.3052C130.015 76.3052 130.11 76.3132 130.206 76.329C130.317 76.329 130.445 76.329 130.588 76.329C130.731 76.329 130.874 76.329 131.017 76.329H132.354L132.306 76.0915C132.099 75.3473 132.06 74.3815 132.187 73.1941C132.235 72.7191 132.291 72.4499 132.354 72.3866C132.418 72.3074 132.648 72.2678 133.046 72.2678H133.714L133.667 72.0541C133.46 71.3099 133.42 70.3362 133.547 69.1329C133.595 68.6579 133.651 68.3888 133.714 68.3254C133.778 68.2463 134.009 68.2066 134.407 68.2066H135.075L135.027 67.9929C134.916 67.5496 134.86 66.9004 134.86 66.0455C134.86 65.1905 134.916 64.6126 135.027 64.3117L135.099 64.1693H137.127C138.48 64.1693 139.172 64.1851 139.204 64.2168C139.299 64.3751 139.363 64.8421 139.395 65.618C139.427 66.3938 139.403 67.0033 139.323 67.4467C139.308 67.5258 139.292 67.5971 139.276 67.6604C139.276 67.7238 139.268 67.7792 139.252 67.8267C139.252 67.8583 139.244 67.8979 139.228 67.9454C139.228 67.9771 139.228 68.0088 139.228 68.0404C139.228 68.0563 139.228 68.0721 139.228 68.0879C139.228 68.1038 139.22 68.1196 139.204 68.1354V68.1591C139.172 68.1908 138.934 68.2066 138.488 68.2066C138.058 68.2066 137.844 68.2304 137.844 68.2779C137.971 68.4996 138.034 69.1408 138.034 70.2016C138.034 71.3258 137.971 71.9987 137.844 72.2203C137.812 72.252 137.342 72.2678 136.435 72.2678C136.197 72.2678 135.974 72.2757 135.767 72.2916C135.56 72.2916 135.401 72.2916 135.29 72.2916L135.123 72.3153C135.25 72.537 135.314 73.1861 135.314 74.2628C135.314 75.3711 135.25 76.0361 135.123 76.2577C135.075 76.3052 134.836 76.329 134.407 76.329C133.945 76.329 133.73 76.3448 133.762 76.3765C133.906 76.6298 133.977 77.279 133.977 78.3239C133.977 79.4006 133.906 80.0655 133.762 80.319C133.73 80.3507 133.945 80.3665 134.407 80.3665C134.804 80.3665 135.035 80.3979 135.099 80.4613C135.162 80.5247 135.218 80.7782 135.266 81.2215C135.329 81.7598 135.338 82.3852 135.29 83.0975C135.258 83.8102 135.202 84.2376 135.123 84.3799L135.29 84.4038C135.401 84.4038 135.56 84.4116 135.767 84.4275C135.974 84.4275 136.197 84.4275 136.435 84.4275C137.342 84.4275 137.812 84.4433 137.844 84.475C137.939 84.6334 138.003 85.1003 138.034 85.8763C138.066 86.6521 138.05 87.2616 137.987 87.7049C137.907 88.1482 137.86 88.3858 137.844 88.4175L138.417 88.4887H138.488C138.934 88.4887 139.172 88.5045 139.204 88.5362C139.284 88.6788 139.339 89.1457 139.371 89.9376C139.419 90.7133 139.411 91.2992 139.347 91.695C139.331 91.7425 139.315 91.8217 139.299 91.9323C139.284 92.0591 139.276 92.1383 139.276 92.17C139.244 92.3439 139.212 92.4471 139.18 92.4787C139.148 92.5104 138.456 92.5263 137.104 92.5263L135.075 92.5024L135.027 92.3125C134.916 91.9165 134.86 91.2911 134.86 90.4362C134.86 89.5812 134.916 88.9954 135.027 88.6788L135.075 88.4887L134.407 88.4651L133.714 88.4412L133.667 88.2513C133.555 87.8397 133.5 87.2141 133.5 86.375C133.5 85.52 133.555 84.9341 133.667 84.6176L133.738 84.4275L133.046 84.4038H132.354L132.306 84.2137C132.195 83.8021 132.139 83.1767 132.139 82.3377C132.139 81.4827 132.195 80.8888 132.306 80.5564L132.378 80.3665H131.017C130.874 80.3665 130.731 80.3665 130.588 80.3665C130.445 80.3665 130.317 80.3743 130.206 80.3902C130.11 80.3902 130.015 80.3979 129.92 80.4138C129.84 80.4138 129.784 80.4138 129.752 80.4138L129.681 80.4377C129.824 80.6909 129.896 81.3321 129.896 82.3613C129.896 83.4538 129.824 84.1267 129.681 84.3799C129.649 84.4116 129.41 84.4275 128.965 84.4275C128.504 84.4275 128.289 84.4433 128.321 84.475C128.464 84.7285 128.535 85.3774 128.535 86.4225C128.535 87.4992 128.464 88.164 128.321 88.4175C128.273 88.4651 128.042 88.4887 127.628 88.4887C127.167 88.4887 126.952 88.5045 126.984 88.5362C127.111 88.758 127.167 89.4387 127.151 90.5788C127.151 91.7186 127.087 92.352 126.96 92.4787C126.928 92.5104 126.236 92.5263 124.884 92.5263L122.855 92.5024L122.807 92.3125C122.6 91.5841 122.56 90.6105 122.688 89.3911C122.735 88.9161 122.791 88.6471 122.855 88.5837C122.919 88.5204 123.149 88.4887 123.547 88.4887H124.215L124.167 88.2513C124.056 87.808 124 87.1587 124 86.3038C124 85.4489 124.056 84.8708 124.167 84.57L124.239 84.4275H125.576H126.936L126.864 84.2137C126.674 83.5172 126.642 82.5433 126.769 81.2926C126.817 80.8176 126.873 80.5486 126.936 80.4852C127 80.406 127.23 80.3665 127.628 80.3665H128.297L128.225 80.1528C128.114 79.7252 128.058 79.0998 128.058 78.2764C128.058 77.4373 128.114 76.8515 128.225 76.519L128.297 76.329L127.604 76.3052L126.912 76.2815L126.864 76.0915C126.753 75.6798 126.697 75.0544 126.697 74.2153C126.713 73.3761 126.777 72.7903 126.889 72.4578L126.936 72.2678L125.576 72.2441H124.215L124.144 72.0541C124.032 71.6424 123.977 71.0091 123.977 70.1541C123.993 69.2991 124.056 68.7133 124.167 68.3966L124.215 68.2304L123.547 68.2066L122.855 68.1829L122.807 67.9929C122.696 67.5971 122.64 66.9558 122.64 66.0692C122.64 65.1826 122.696 64.5967 122.807 64.3117Z" fill="#2B333E"/>
<path d="M51.1719 112.673L51.2435 112.53H57.3536C61.411 112.53 63.4557 112.546 63.4876 112.578C63.5831 112.736 63.6465 113.203 63.6783 113.979C63.7102 114.755 63.6943 115.364 63.6308 115.808C63.5512 116.251 63.5035 116.489 63.4876 116.52H63.6546C63.766 116.536 63.925 116.552 64.1319 116.568C64.3389 116.568 64.5615 116.568 64.8003 116.568C65.6914 116.568 66.1606 116.591 66.2084 116.639C66.3039 116.797 66.3676 117.264 66.3994 118.04C66.4313 118.8 66.4154 119.402 66.3517 119.845C66.2721 120.304 66.2243 120.55 66.2084 120.581C66.1765 120.613 66.3913 120.629 66.8528 120.629C67.2983 120.629 67.5371 120.645 67.5689 120.676C67.5849 120.692 67.6086 120.787 67.6405 120.961C67.8474 122.054 67.8393 123.194 67.6167 124.381C67.5849 124.587 67.5849 124.785 67.6167 124.975C67.696 125.387 67.736 125.965 67.736 126.709C67.736 127.453 67.696 128.023 67.6167 128.419C67.5849 128.624 67.5849 128.83 67.6167 129.036C67.7279 129.511 67.7756 130.208 67.7597 131.126C67.7438 132.029 67.6801 132.567 67.5689 132.741C67.5371 132.773 67.2983 132.788 66.8528 132.788H66.1846L66.2321 133.002C66.3436 133.398 66.3913 134.079 66.3754 135.045C66.3754 136.011 66.3198 136.588 66.2084 136.779C66.1606 136.826 65.6914 136.85 64.8003 136.85C64.5615 136.85 64.3389 136.858 64.1319 136.874C63.925 136.874 63.766 136.881 63.6546 136.897H63.4876C63.6149 137.119 63.6705 137.8 63.6546 138.94C63.6546 140.08 63.5909 140.713 63.4635 140.84C63.4317 140.871 61.3792 140.887 57.3058 140.887L51.2196 140.863L51.1719 140.674C51.0605 140.277 51.0048 139.652 51.0048 138.797C51.0048 137.942 51.0605 137.356 51.1719 137.04C51.2037 136.913 51.2037 136.77 51.1719 136.612C51.0605 136.185 51.0048 135.559 51.0048 134.736C51.0048 133.897 51.0605 133.311 51.1719 132.979C51.2037 132.852 51.2037 132.717 51.1719 132.575C51.0605 132.147 51.0048 131.514 51.0048 130.675C51.0048 129.836 51.0605 129.25 51.1719 128.917C51.2037 128.791 51.2037 128.656 51.1719 128.514C51.0605 128.086 51.0048 127.461 51.0048 126.637C51.0048 125.798 51.0605 125.212 51.1719 124.88C51.2037 124.753 51.2037 124.611 51.1719 124.453C51.0605 124.025 51.0048 123.399 51.0048 122.576C51.0048 121.737 51.0605 121.151 51.1719 120.819C51.2037 120.692 51.2037 120.558 51.1719 120.415C51.0605 119.988 51.0048 119.354 51.0048 118.515C51.0048 117.676 51.0605 117.09 51.1719 116.758C51.2037 116.631 51.2037 116.496 51.1719 116.354C51.0605 115.91 51.0048 115.262 51.0048 114.407C51.0048 113.551 51.0605 112.974 51.1719 112.673ZM62.0315 116.758L62.1033 116.568H58.6901C58.1173 116.568 57.5604 116.576 57.0194 116.591C56.4784 116.591 56.0568 116.599 55.7545 116.615C55.468 116.615 55.3328 116.623 55.3487 116.639C55.4601 116.813 55.5158 117.359 55.5158 118.278C55.5317 119.18 55.4919 119.861 55.3964 120.32C55.3646 120.526 55.3646 120.732 55.3964 120.938C55.4919 121.397 55.5317 122.085 55.5158 123.004C55.5158 123.906 55.4601 124.445 55.3487 124.619C55.3169 124.65 55.3248 124.737 55.3726 124.88C55.484 125.26 55.5317 125.941 55.5158 126.922C55.5158 127.888 55.4601 128.466 55.3487 128.656C55.3328 128.672 55.3248 128.712 55.3248 128.775C55.3408 128.822 55.3566 128.878 55.3726 128.941C55.484 129.321 55.5317 130.002 55.5158 130.984C55.5158 131.949 55.4601 132.527 55.3487 132.717C55.3328 132.733 55.3248 132.773 55.3248 132.836C55.3408 132.884 55.3566 132.939 55.3726 133.002C55.484 133.398 55.5317 134.079 55.5158 135.045C55.5158 136.011 55.4601 136.588 55.3487 136.779C55.3328 136.794 55.468 136.81 55.7545 136.826C56.0568 136.826 56.4784 136.834 57.0194 136.85C57.5604 136.85 58.1173 136.85 58.6901 136.85H62.0792L62.0315 136.612C61.8248 135.868 61.7849 134.902 61.9123 133.715C61.96 133.24 62.0156 132.971 62.0792 132.907C62.1429 132.828 62.3736 132.788 62.7714 132.788H63.4398L63.392 132.575C63.2806 132.147 63.225 131.514 63.225 130.675C63.225 129.836 63.2806 129.25 63.392 128.917C63.4239 128.791 63.4239 128.656 63.392 128.514C63.2806 128.086 63.225 127.461 63.225 126.637C63.225 125.798 63.2806 125.212 63.392 124.88C63.4239 124.753 63.4239 124.611 63.392 124.453C63.2806 124.025 63.225 123.399 63.225 122.576C63.225 121.737 63.2806 121.151 63.392 120.819L63.4398 120.629L62.7714 120.605H62.0792L62.0315 120.415C61.9202 120.003 61.8645 119.378 61.8645 118.539C61.8645 117.684 61.9202 117.09 62.0315 116.758ZM77.092 112.673L77.1398 112.53H79.8606C81.6586 112.53 82.5736 112.546 82.6055 112.578C82.7007 112.736 82.7644 113.203 82.7962 113.979C82.8281 114.755 82.8122 115.364 82.7485 115.808C82.6691 116.251 82.6214 116.489 82.6055 116.52C82.5736 116.552 82.7884 116.568 83.2498 116.568C83.6794 116.568 83.918 116.591 83.9657 116.639C84.0613 116.797 84.1249 117.264 84.1568 118.04C84.1886 118.8 84.1727 119.402 84.109 119.845C84.0294 120.304 83.9817 120.55 83.9657 120.581C83.9339 120.613 84.1487 120.629 84.6101 120.629C85.0556 120.629 85.2944 120.645 85.3263 120.676C85.4218 120.835 85.4855 121.302 85.5171 122.078C85.5489 122.853 85.533 123.463 85.4696 123.906C85.39 124.349 85.3422 124.587 85.3263 124.619L85.8992 124.69H85.9707C86.4162 124.69 86.655 124.706 86.6866 124.737C86.7025 124.753 86.7265 124.848 86.7584 125.022C86.965 126.115 86.9572 127.247 86.7343 128.419C86.7025 128.64 86.7025 128.846 86.7343 129.036C86.8458 129.511 86.8935 130.208 86.8776 131.126C86.8617 132.029 86.798 132.567 86.6866 132.741C86.655 132.773 86.8698 132.788 87.3312 132.788C87.7767 132.788 88.0153 132.804 88.0471 132.836C88.063 132.852 88.0868 132.947 88.1186 133.121C88.3256 134.229 88.3175 135.369 88.0949 136.541C88.063 136.747 88.063 136.945 88.0949 137.135C88.2063 137.626 88.246 138.338 88.2142 139.272C88.1982 140.206 88.1346 140.729 88.0234 140.84C87.9915 140.871 87.2994 140.887 85.9469 140.887L83.918 140.863L83.8702 140.674C83.759 140.277 83.7032 139.652 83.7032 138.797C83.7032 137.942 83.759 137.356 83.8702 137.04C83.9021 136.913 83.9021 136.77 83.8702 136.612C83.759 136.185 83.7032 135.559 83.7032 134.736C83.7032 133.897 83.759 133.311 83.8702 132.979L83.918 132.788H79.8606C79.5425 132.788 79.2321 132.788 78.9296 132.788C78.6274 132.788 78.3411 132.788 78.0705 132.788C77.816 132.788 77.5694 132.797 77.3305 132.812C77.092 132.812 76.8772 132.812 76.6862 132.812C76.5113 132.812 76.3521 132.812 76.2088 132.812C76.0817 132.812 75.9862 132.812 75.9225 132.812L75.827 132.836C75.9384 133.01 75.994 133.556 75.994 134.475C76.0099 135.393 75.9703 136.082 75.8747 136.541C75.8429 136.747 75.8429 136.945 75.8747 137.135C75.9862 137.626 76.0259 138.338 75.994 139.272C75.9781 140.206 75.9144 140.729 75.8032 140.84C75.7714 140.871 75.0792 140.887 73.7268 140.887L71.6978 140.863L71.6501 140.674C71.5389 140.277 71.483 139.652 71.483 138.797C71.483 137.942 71.5389 137.356 71.6501 137.04C71.6819 136.913 71.6819 136.77 71.6501 136.612C71.4434 135.868 71.4034 134.902 71.5308 133.715C71.5786 133.24 71.6341 132.971 71.6978 132.907C71.7615 132.828 71.9922 132.788 72.39 132.788H73.0584L73.0106 132.575C72.8992 132.147 72.8436 131.514 72.8436 130.675C72.8436 129.836 72.8992 129.25 73.0106 128.917C73.0425 128.791 73.0425 128.656 73.0106 128.514C72.8039 127.769 72.764 126.796 72.8913 125.592C72.9391 125.117 72.9947 124.848 73.0584 124.785C73.1221 124.722 73.3528 124.69 73.7505 124.69H74.4189L74.3712 124.453C74.1642 123.708 74.1245 122.742 74.2516 121.555C74.2994 121.08 74.3553 120.811 74.4189 120.748C74.4823 120.668 74.7131 120.629 75.1111 120.629H75.7792L75.7077 120.415C75.5167 119.718 75.4848 118.745 75.6122 117.494C75.6599 117.019 75.7155 116.75 75.7792 116.686C75.8429 116.607 76.0736 116.568 76.4714 116.568H77.1398L77.068 116.354C76.9568 115.926 76.901 115.285 76.901 114.43C76.9169 113.559 76.9806 112.974 77.092 112.673ZM81.1494 120.819L81.2212 120.629H79.8606C79.7173 120.629 79.5743 120.629 79.431 120.629C79.3036 120.629 79.1844 120.637 79.0729 120.653C78.9615 120.653 78.8581 120.653 78.7626 120.653C78.683 120.653 78.6274 120.653 78.5956 120.653L78.5241 120.676C78.6674 120.93 78.7389 121.579 78.7389 122.624C78.7389 123.701 78.6674 124.365 78.5241 124.619C78.4763 124.666 78.2375 124.69 77.8079 124.69C77.3465 124.69 77.1317 124.706 77.1635 124.737C77.3068 124.991 77.3783 125.64 77.3783 126.685C77.3783 127.762 77.3068 128.427 77.1635 128.68H77.4979C77.7364 128.696 78.0626 128.712 78.4763 128.728C78.9059 128.728 79.3673 128.728 79.8606 128.728H82.5577L82.5099 128.514C82.3985 128.086 82.3429 127.461 82.3429 126.637C82.3429 125.798 82.3985 125.212 82.5099 124.88L82.5814 124.69L81.8893 124.666L81.1971 124.642L81.1494 124.453C81.0379 124.041 80.9823 123.415 80.9823 122.576C80.9823 121.737 81.0379 121.151 81.1494 120.819ZM93.2025 112.673L93.274 112.53H99.3841C103.442 112.53 105.486 112.546 105.518 112.578C105.614 112.736 105.677 113.203 105.709 113.979C105.741 114.755 105.725 115.364 105.661 115.808C105.582 116.251 105.534 116.489 105.518 116.52H105.685C105.797 116.536 105.956 116.552 106.163 116.568C106.37 116.568 106.592 116.568 106.831 116.568C107.722 116.568 108.191 116.591 108.239 116.639C108.255 116.655 108.279 116.75 108.311 116.924C108.517 118.016 108.51 119.148 108.287 120.32C108.255 120.542 108.255 120.748 108.287 120.938C108.398 121.413 108.446 122.101 108.43 123.004C108.414 123.906 108.35 124.445 108.239 124.619C108.191 124.666 107.722 124.69 106.831 124.69C106.592 124.69 106.37 124.698 106.163 124.714C105.956 124.714 105.797 124.722 105.685 124.737H105.518C105.646 124.959 105.709 125.608 105.709 126.685C105.709 127.793 105.646 128.458 105.518 128.68C105.486 128.712 104.118 128.728 101.413 128.728H97.3554L97.4032 128.941C97.5146 129.321 97.5624 130.002 97.5464 130.984C97.5464 131.949 97.4906 132.527 97.3794 132.717C97.3635 132.733 97.3554 132.773 97.3554 132.836C97.3713 132.884 97.3872 132.939 97.4032 133.002C97.5146 133.382 97.5624 134.063 97.5464 135.045C97.5464 136.011 97.4906 136.588 97.3794 136.779C97.3476 136.81 97.3554 136.897 97.4032 137.04C97.5146 137.451 97.5624 138.156 97.5464 139.154C97.5464 140.151 97.4828 140.713 97.3554 140.84C97.3235 140.871 96.6314 140.887 95.2789 140.887L93.2503 140.863L93.1788 140.674C93.0673 140.262 93.0117 139.636 93.0117 138.797C93.0274 137.942 93.091 137.356 93.2025 137.04C93.2343 136.913 93.2343 136.77 93.2025 136.612C93.091 136.185 93.0355 135.559 93.0355 134.736C93.0355 133.897 93.091 133.311 93.2025 132.979C93.2343 132.852 93.2343 132.717 93.2025 132.575C93.091 132.147 93.0355 131.514 93.0355 130.675C93.0355 129.836 93.091 129.25 93.2025 128.917C93.2343 128.791 93.2343 128.656 93.2025 128.514C93.091 128.086 93.0355 127.461 93.0355 126.637C93.0355 125.798 93.091 125.212 93.2025 124.88C93.2343 124.753 93.2343 124.611 93.2025 124.453C93.091 124.025 93.0355 123.399 93.0355 122.576C93.0355 121.737 93.091 121.151 93.2025 120.819C93.2343 120.692 93.2343 120.558 93.2025 120.415C93.091 119.988 93.0355 119.354 93.0355 118.515C93.0355 117.676 93.091 117.09 93.2025 116.758C93.2343 116.631 93.2343 116.496 93.2025 116.354C93.091 115.91 93.0355 115.262 93.0355 114.407C93.0355 113.551 93.091 112.974 93.2025 112.673ZM104.062 116.758L104.11 116.568H100.721C100.148 116.568 99.5832 116.576 99.0263 116.591C98.4852 116.591 98.0635 116.599 97.7612 116.615C97.4749 116.615 97.3395 116.623 97.3554 116.639C97.4668 116.813 97.5305 117.359 97.5464 118.278C97.5624 119.18 97.5224 119.861 97.4272 120.32C97.3953 120.526 97.3953 120.732 97.4272 120.938C97.5383 121.413 97.5861 122.101 97.5702 123.004C97.5543 123.906 97.4828 124.445 97.3554 124.619C97.3395 124.635 97.4749 124.65 97.7612 124.666C98.0635 124.666 98.4852 124.674 99.0263 124.69C99.5832 124.69 100.148 124.69 100.721 124.69H104.11L104.062 124.453C103.951 124.025 103.895 123.399 103.895 122.576C103.895 121.737 103.951 121.151 104.062 120.819C104.094 120.692 104.094 120.558 104.062 120.415C103.951 119.988 103.895 119.354 103.895 118.515C103.895 117.676 103.951 117.09 104.062 116.758ZM113.538 112.673L113.609 112.53H119.719C123.777 112.53 125.821 112.546 125.853 112.578C125.949 112.736 126.012 113.203 126.044 113.979C126.076 114.755 126.06 115.364 125.996 115.808C125.917 116.251 125.869 116.489 125.853 116.52H126.02C126.132 116.536 126.291 116.552 126.498 116.568C126.704 116.568 126.927 116.568 127.166 116.568C128.057 116.568 128.526 116.591 128.574 116.639C128.59 116.655 128.614 116.75 128.646 116.924C128.853 118.016 128.845 119.148 128.622 120.32C128.59 120.542 128.59 120.748 128.622 120.938C128.733 121.413 128.781 122.101 128.765 123.004C128.749 123.906 128.686 124.445 128.574 124.619C128.526 124.666 128.057 124.69 127.166 124.69C126.927 124.69 126.704 124.698 126.498 124.714C126.291 124.714 126.132 124.722 126.02 124.737H125.853C125.98 124.959 126.044 125.608 126.044 126.685C126.044 127.793 125.98 128.458 125.853 128.68C125.821 128.712 124.453 128.728 121.748 128.728H117.691L117.738 128.941C117.85 129.321 117.898 130.002 117.882 130.984C117.882 131.949 117.826 132.527 117.714 132.717C117.698 132.733 117.691 132.773 117.691 132.836C117.706 132.884 117.722 132.939 117.738 133.002C117.85 133.382 117.898 134.063 117.882 135.045C117.882 136.011 117.826 136.588 117.714 136.779C117.683 136.81 117.691 136.897 117.738 137.04C117.85 137.451 117.898 138.156 117.882 139.154C117.882 140.151 117.818 140.713 117.691 140.84C117.659 140.871 116.967 140.887 115.614 140.887L113.585 140.863L113.514 140.674C113.402 140.262 113.347 139.636 113.347 138.797C113.363 137.942 113.426 137.356 113.538 137.04C113.569 136.913 113.569 136.77 113.538 136.612C113.426 136.185 113.371 135.559 113.371 134.736C113.371 133.897 113.426 133.311 113.538 132.979C113.569 132.852 113.569 132.717 113.538 132.575C113.426 132.147 113.371 131.514 113.371 130.675C113.371 129.836 113.426 129.25 113.538 128.917C113.569 128.791 113.569 128.656 113.538 128.514C113.426 128.086 113.371 127.461 113.371 126.637C113.371 125.798 113.426 125.212 113.538 124.88C113.569 124.753 113.569 124.611 113.538 124.453C113.426 124.025 113.371 123.399 113.371 122.576C113.371 121.737 113.426 121.151 113.538 120.819C113.569 120.692 113.569 120.558 113.538 120.415C113.426 119.988 113.371 119.354 113.371 118.515C113.371 117.676 113.426 117.09 113.538 116.758C113.569 116.631 113.569 116.496 113.538 116.354C113.426 115.91 113.371 115.262 113.371 114.407C113.371 113.551 113.426 112.974 113.538 112.673ZM124.397 116.758L124.445 116.568H121.056C120.483 116.568 119.918 116.576 119.361 116.591C118.82 116.591 118.399 116.599 118.096 116.615C117.81 116.615 117.675 116.623 117.691 116.639C117.802 116.813 117.866 117.359 117.882 118.278C117.898 119.18 117.858 119.861 117.762 120.32C117.73 120.526 117.73 120.732 117.762 120.938C117.874 121.413 117.921 122.101 117.905 123.004C117.889 123.906 117.818 124.445 117.691 124.619C117.675 124.635 117.81 124.65 118.096 124.666C118.399 124.666 118.82 124.674 119.361 124.69C119.918 124.69 120.483 124.69 121.056 124.69H124.445L124.397 124.453C124.286 124.025 124.23 123.399 124.23 122.576C124.23 121.737 124.286 121.151 124.397 120.819C124.429 120.692 124.429 120.558 124.397 120.415C124.286 119.988 124.23 119.354 124.23 118.515C124.23 117.676 124.286 117.09 124.397 116.758ZM135.233 112.673L135.305 112.53H140.723C144.335 112.53 146.156 112.546 146.188 112.578C146.284 112.736 146.347 113.203 146.379 113.979C146.411 114.755 146.395 115.364 146.332 115.808C146.252 116.251 146.204 116.489 146.188 116.52H146.356C146.467 116.536 146.626 116.552 146.833 116.568C147.04 116.568 147.262 116.568 147.501 116.568C148.392 116.568 148.862 116.591 148.909 116.639C149.005 116.797 149.068 117.264 149.1 118.04C149.132 118.8 149.116 119.402 149.052 119.845C148.973 120.304 148.917 120.55 148.885 120.581C148.869 120.597 148.177 120.605 146.809 120.605H144.78L144.732 120.415C144.621 120.003 144.565 119.37 144.565 118.515C144.565 117.66 144.621 117.074 144.732 116.758L144.78 116.568H140.723C140.023 116.568 139.346 116.576 138.694 116.591C138.042 116.591 137.54 116.599 137.19 116.615C136.84 116.615 136.673 116.623 136.689 116.639C136.8 116.813 136.856 117.359 136.856 118.278C136.872 119.18 136.832 119.861 136.737 120.32C136.705 120.526 136.705 120.732 136.737 120.938C136.848 121.413 136.896 122.101 136.88 123.004C136.864 123.906 136.8 124.445 136.689 124.619C136.673 124.635 136.864 124.65 137.262 124.666C137.675 124.666 138.264 124.674 139.028 124.69C139.792 124.69 140.58 124.69 141.391 124.69C144.557 124.69 146.156 124.706 146.188 124.737C146.284 124.896 146.347 125.363 146.379 126.139C146.411 126.915 146.395 127.524 146.332 127.967C146.252 128.411 146.204 128.648 146.188 128.68H146.356C146.467 128.696 146.626 128.712 146.833 128.728C147.04 128.728 147.262 128.728 147.501 128.728C148.392 128.728 148.862 128.751 148.909 128.799C148.989 128.941 149.045 129.408 149.076 130.2C149.124 130.976 149.116 131.561 149.052 131.957C149.052 131.973 149.036 132.044 149.005 132.171C148.989 132.282 148.973 132.361 148.957 132.409C148.925 132.662 148.925 132.892 148.957 133.097C149.068 133.572 149.116 134.261 149.1 135.163C149.084 136.066 149.021 136.604 148.909 136.779C148.862 136.826 148.392 136.85 147.501 136.85C147.262 136.85 147.04 136.858 146.833 136.874C146.626 136.874 146.467 136.881 146.356 136.897H146.188C146.316 137.119 146.371 137.8 146.356 138.94C146.356 140.08 146.292 140.713 146.164 140.84C146.133 140.871 144.311 140.887 140.699 140.887L135.257 140.863L135.209 140.674C135.098 140.262 135.042 139.629 135.042 138.774C135.058 137.918 135.122 137.333 135.233 137.016L135.281 136.85L133.92 136.826L132.56 136.802L132.512 136.612C132.401 136.201 132.345 135.559 132.345 134.688C132.345 133.802 132.401 133.216 132.512 132.931L132.584 132.788H134.612C135.965 132.788 136.657 132.804 136.689 132.836C136.784 132.994 136.848 133.461 136.88 134.237C136.912 135.013 136.888 135.623 136.808 136.066C136.793 136.145 136.777 136.217 136.761 136.28C136.761 136.343 136.753 136.399 136.737 136.446C136.737 136.478 136.729 136.517 136.713 136.565C136.713 136.597 136.713 136.628 136.713 136.66C136.713 136.676 136.713 136.692 136.713 136.707C136.713 136.723 136.705 136.739 136.689 136.755V136.779C136.673 136.794 136.84 136.81 137.19 136.826C137.54 136.826 138.042 136.834 138.694 136.85C139.346 136.85 140.023 136.85 140.723 136.85H144.78L144.732 136.612C144.621 136.185 144.565 135.559 144.565 134.736C144.565 133.897 144.621 133.311 144.732 132.979C144.764 132.852 144.764 132.717 144.732 132.575C144.621 132.147 144.565 131.514 144.565 130.675C144.565 129.836 144.621 129.25 144.732 128.917L144.78 128.728H140.03L135.257 128.704L135.209 128.514C135.098 128.102 135.042 127.469 135.042 126.614C135.058 125.759 135.122 125.173 135.233 124.856L135.281 124.69L133.92 124.666L132.56 124.642L132.512 124.453C132.401 124.041 132.345 123.415 132.345 122.576C132.345 121.721 132.401 121.135 132.512 120.819C132.544 120.692 132.544 120.558 132.512 120.415C132.401 119.972 132.345 119.323 132.345 118.468C132.345 117.613 132.401 117.035 132.512 116.734L132.584 116.568H133.92H135.281L135.233 116.354C135.122 115.91 135.066 115.262 135.066 114.407C135.066 113.551 135.122 112.974 135.233 112.673Z" fill="#A8E4AD"/>
</svg>
