<svg width="79" height="33" viewBox="0 0 79 33" fill="none" xmlns="http://www.w3.org/2000/svg">
<g clip-path="url(#clip0)">
<path d="M12.7819 27.8825L9.46192 23.0837L8.46593 24.2421V27.8825H5.47791V11.087H8.46593V20.5189H8.63194L12.284 16.2167H15.77L11.454 21.1808L16.019 27.8825H12.7819Z" fill="white"/>
<path d="M21.1655 28.0474C20.0035 28.0474 19.0075 27.7991 18.1775 27.3028C17.3474 26.8064 16.6835 26.1444 16.1855 25.2344C15.6875 24.3243 15.5215 23.3314 15.5215 22.0903C15.5215 20.9321 15.7705 19.8565 16.1855 18.9464C16.6005 18.0363 17.2644 17.2916 18.0945 16.7953C18.9245 16.2988 19.9205 15.9679 21.0826 15.9679C22.0785 15.9679 22.9915 16.216 23.7385 16.6298C24.5686 17.0434 25.1496 17.7054 25.6475 18.5327C26.1455 19.3601 26.3115 20.4356 26.3115 21.6767V22.9177H18.4265C18.5095 23.7451 18.8415 24.4897 19.2565 24.9862C19.7545 25.4825 20.3355 25.7308 21.2485 25.7308C21.9125 25.7308 22.4935 25.5653 22.8255 25.2344C23.1575 24.9034 23.4065 24.5724 23.5725 24.076L26.2285 24.8207C26.0625 25.317 25.8135 25.8963 25.3985 26.3926C24.9836 26.8891 24.4856 27.3028 23.7385 27.6337C22.9915 27.8819 22.1615 28.0474 21.1655 28.0474ZM20.9996 18.45C20.3355 18.45 19.7545 18.6981 19.3395 19.1119C18.9245 19.5255 18.5925 20.1047 18.4265 20.9321H23.4895C23.4895 20.2702 23.2405 19.691 22.8255 19.1946C22.3275 18.6981 21.7465 18.45 20.9996 18.45Z" fill="white"/>
<path d="M30.3779 28.3783L30.627 27.799L26.3939 16.2159H29.4649L32.038 23.9105H32.204L34.777 16.2159H37.848L32.8679 29.6193C32.7019 30.033 32.4529 30.5294 32.121 30.9431C31.789 31.3567 31.374 31.7705 30.876 32.0186C30.3779 32.2668 29.7139 32.4323 28.9669 32.4323C28.6349 32.4323 28.3859 32.4323 28.054 32.3496C27.722 32.2668 27.556 32.1841 27.3069 32.1014L27.971 29.7848C28.7179 29.9502 29.2159 29.9502 29.5479 29.702C29.7969 29.5365 30.1289 29.0401 30.3779 28.3783Z" fill="white"/>
<path d="M48.2233 19.9391L45.4843 20.3528C45.3183 19.7736 45.0693 19.36 44.7373 19.029C44.4053 18.698 43.9073 18.5326 43.2432 18.5326C42.3302 18.5326 41.7493 18.8635 41.2513 19.5254C40.8363 20.1874 40.5872 21.0147 40.5872 22.0902C40.5872 23.1658 40.8363 24.0759 41.2513 24.7378C41.6663 25.3997 42.3302 25.7307 43.2432 25.7307C43.8243 25.7307 44.3223 25.5652 44.6543 25.2343C44.9863 24.9033 45.3183 24.4896 45.4013 23.9932L48.1403 24.4069C47.8913 25.4824 47.3103 26.3925 46.4802 27.1372C45.5673 27.799 44.4883 28.2128 43.1602 28.2128C41.9983 28.2128 41.0853 27.9645 40.2552 27.4681C39.4252 26.9717 38.8442 26.2271 38.3462 25.3169C37.9313 24.4069 37.6823 23.3313 37.6823 22.173C37.6823 21.0147 37.9313 19.9391 38.3462 19.029C38.7612 18.1189 39.4252 17.457 40.2552 16.9607C41.0853 16.4642 41.9983 16.2159 43.1602 16.2159C44.4883 16.2159 45.5673 16.5469 46.4802 17.2915C47.4763 17.788 48.0573 18.7808 48.2233 19.9391Z" fill="white"/>
<path d="M55.9425 27.8818V26.558H55.7765C55.6104 26.889 55.2784 27.3027 54.7804 27.6336C54.2824 27.9645 53.6184 28.13 52.7884 28.13C52.1243 28.13 51.4604 27.9645 50.8794 27.7164C50.2984 27.4681 49.8834 27.0544 49.4684 26.558C49.1363 26.0617 48.9703 25.3997 48.9703 24.6551C48.9703 23.4968 49.3854 22.6695 50.2154 22.0902C51.0454 21.5111 52.2073 21.1801 53.7014 21.0147C54.0334 21.0147 54.3654 20.932 54.6974 20.932C55.0294 20.932 55.2784 20.8492 55.5274 20.7665C55.6935 20.6837 55.8595 20.5183 55.8595 20.3528V20.1874C55.8595 19.6909 55.6935 19.2773 55.3614 18.9463C55.0294 18.698 54.6144 18.5326 54.1164 18.5326C53.5354 18.5326 53.1204 18.698 52.7054 18.9463C52.2903 19.1945 52.1243 19.5254 51.9584 19.9391L49.2193 19.5254C49.4684 18.4499 50.0494 17.6225 50.9624 17.0433C51.8754 16.4642 52.9544 16.2159 54.1994 16.2159C54.9464 16.2159 55.6935 16.3814 56.4404 16.6297C57.1044 16.8779 57.6854 17.2915 58.1834 17.8707C58.5984 18.4499 58.8475 19.2773 58.8475 20.1874V28.0473H55.9425V27.8818ZM55.7765 23.9932V22.4212C55.6935 22.504 55.5274 22.5867 55.3614 22.6695C55.1124 22.7522 54.8634 22.7522 54.6144 22.8349C54.3654 22.9176 54.1164 22.9176 53.9504 22.9176C53.2864 23.0003 52.7054 23.1658 52.3733 23.4141C52.0414 23.6622 51.8754 24.0759 51.8754 24.5723C51.8754 24.9861 52.0414 25.3169 52.2903 25.5652C52.6224 25.8134 52.9544 25.8962 53.4524 25.8962C54.1164 25.8962 54.6144 25.7307 55.1124 25.3169C55.6105 24.9033 55.7765 24.4896 55.7765 23.9932Z" fill="white"/>
<path d="M67.8111 16.4647L66.8982 19.0295C66.8152 18.9468 66.6492 18.9468 66.4832 18.864C66.3171 18.7813 66.0681 18.7813 65.8191 18.7813C65.3211 18.7813 64.9061 18.864 64.5741 19.1122C64.2421 19.3604 63.9101 19.6914 63.7441 20.0223C63.5781 20.436 63.4121 20.8497 63.4121 21.2634V27.8823H60.4241V16.2165H63.3291V17.8712H63.4951C63.6611 17.2921 63.9931 16.7956 64.4911 16.5474C64.9891 16.2165 65.5701 16.051 66.1511 16.051C66.4832 16.051 66.7322 16.051 67.0642 16.1337C67.3962 16.2165 67.6451 16.2992 67.8111 16.4647Z" fill="white"/>
<path d="M78.0208 27.8822H75.1158V26.4758H74.9498C74.7838 26.8894 74.4518 27.2204 73.9538 27.5513C73.4558 27.8822 72.8748 28.0477 72.0448 28.0477C71.1318 28.0477 70.3847 27.7995 69.7207 27.3859C69.0568 26.8894 68.4758 26.2275 68.0608 25.3174C67.6457 24.4073 67.4797 23.3317 67.4797 22.008C67.4797 20.6842 67.7287 19.6086 68.1438 18.6985C68.5588 17.7884 69.1398 17.1265 69.8037 16.7128C70.5507 16.2991 71.2978 16.0509 72.1278 16.0509C72.8748 16.0509 73.5388 16.2164 74.0368 16.5474C74.5348 16.8783 74.8668 17.2093 75.0328 17.6229H75.1158V12.3278H78.0208V27.8822ZM70.2187 22.008C70.2187 23.0836 70.4677 23.9937 70.8828 24.6555C71.2978 25.3174 71.9618 25.6484 72.8748 25.6484C73.4558 25.6484 73.9538 25.4829 74.3688 25.1519C74.7008 24.821 75.0328 24.4073 75.1988 23.8282C75.3648 23.249 75.4478 22.6698 75.4478 22.008C75.4478 21.0151 75.2818 20.105 74.8668 19.4431C74.4518 18.7812 73.8708 18.4503 72.9578 18.4503C72.0448 18.4503 71.4638 18.7812 70.9658 19.4431C70.4677 20.105 70.2187 20.9324 70.2187 22.008Z" fill="white"/>
<path d="M6.88905 13.817C3.07103 13.817 0 10.673 0 6.86712C0 3.06125 3.07103 0 6.88905 0C10.707 0 13.7781 3.06125 13.7781 6.86712C13.8611 10.673 10.707 13.817 6.88905 13.817ZM6.88905 2.7303C4.56504 2.7303 2.73902 4.63324 2.73902 6.86712C2.73902 9.18374 4.64804 11.004 6.88905 11.004C9.21308 11.004 11.0391 9.101 11.0391 6.86712C11.1221 4.63324 9.21308 2.7303 6.88905 2.7303Z" fill="white"/>
</g>
<defs>
<clipPath id="clip0">
<rect width="78.0205" height="32.7984" fill="white"/>
</clipPath>
</defs>
</svg>
