<svg width="135" height="48" viewBox="0 0 135 48" fill="none" xmlns="http://www.w3.org/2000/svg">
<g clip-path="url(#clip0)">
<path d="M7.4 13.1L1.2 23.8C-0.4 26.6 -0.4 30.1 1.2 32.9L7.4 43.6C9 46.4 12 48.1 15.3 48.1H27.6C30.9 48.1 33.9 46.4 35.5 43.5L41.6 32.8C43.2 30 43.2 26.5 41.6 23.7L35.4 13C33.8 10.2 30.8 8.5 27.5 8.5H15.2C12 8.5 9 10.3 7.4 13.1Z" fill="#0B476D"/>
<path d="M14 19.1001C14 19.1001 11.2 23.8001 11.4 25.5001C11.8 28.7001 14 37.8001 14 37.8001H14.7L16.6 29.6001C16.5 29.6001 14.7 26.0001 14 19.1001Z" fill="#FAB266"/>
<path d="M29.5 19.2C29.5 19.2 32.3 23.8999 32.1 25.5999C31.7 28.7999 29.5 37.9 29.5 37.9H28.8L26.9 29.7C27 29.7 28.9 26.1 29.5 19.2Z" fill="#F1645D"/>
<path d="M21.8 -0.199951C37.5 17.9 24.6 34.5 24.6 34.5H21.8V-0.199951Z" fill="#398689"/>
<path d="M21.8 -0.300049C6.1 17.8 19 34.4 19 34.4H21.8V-0.300049Z" fill="#78BE97"/>
<path d="M50.9 39.6001V22.1001H61.7V24.6001H53.5V29.4001H58.8V31.9001H53.5V37.2001H62.3V39.7001H50.9V39.6001Z" fill="black"/>
<path d="M80.7 39.6V31.9C80.7 29.9 79.9 28.9 78.4 28.9C77.7 28.9 77.1 29.2 76.6 29.7C76.1 30.2 75.9 31 75.9 32V39.5H73.3V31.8C73.3 29.8 72.5 28.8 71 28.8C70.3 28.8 69.7 29.1 69.2 29.6C68.7 30.1 68.5 30.9 68.5 31.9V39.4H65.9V26.8H68.5V28C69.2 27 70.3 26.5 71.7 26.5C73.3 26.5 74.4 27.1 75.1 28.3C75.9 27.1 77.1 26.5 78.9 26.5C80.3 26.5 81.4 26.9 82.2 27.7C83 28.5 83.5 29.7 83.5 31.3V39.5H80.7V39.6Z" fill="black"/>
<path d="M92.7 39.9C91.5 39.9 90.5 39.5 89.7 38.6V39.6H87.1V22.7L89.7 21.5V27.7C90.5 26.8 91.5 26.4 92.7 26.4C94.3 26.4 95.6 27 96.5 28.2C97.5 29.4 98 31 98 33.1C98 35.2 97.5 36.9 96.6 38.1C95.6 39.3 94.3 39.9 92.7 39.9ZM92.4 37.4C93.4 37.4 94.1 37 94.6 36.3C95.1 35.5 95.4 34.5 95.4 33.2C95.4 31.8 95.1 30.8 94.6 30.1C94.1 29.4 93.3 29 92.4 29C91.8 29 91.3 29.1 90.8 29.4C90.3 29.7 90 30 89.7 30.4V36C90.3 36.9 91.2 37.4 92.4 37.4Z" fill="black"/>
<path d="M108.5 39.6001V38.5001C107.6 39.4001 106.4 39.9001 105 39.9001C103.7 39.9001 102.6 39.5001 101.7 38.8001C100.9 38.1001 100.4 37.0001 100.4 35.6001C100.4 34.2001 100.9 33.2001 101.8 32.4001C102.7 31.6001 103.9 31.3001 105.3 31.3001C106.5 31.3001 107.6 31.5001 108.4 32.1001V31.4001C108.4 30.5001 108.2 29.8001 107.8 29.4001C107.4 29.0001 106.7 28.8001 105.7 28.8001C104.3 28.8001 103.1 29.2001 102 30.0001L101.2 27.9001C102.5 27.0001 104.1 26.6001 106 26.6001C106.6 26.6001 107.2 26.7001 107.7 26.8001C108.2 26.9001 108.7 27.1001 109.2 27.4001C109.7 27.7001 110.1 28.2001 110.4 28.9001C110.7 29.6001 110.8 30.4001 110.8 31.4001V39.7001H108.5V39.6001ZM105.5 37.6001C106.7 37.6001 107.7 37.1001 108.5 36.2001V34.2001C107.7 33.8001 106.8 33.6001 105.8 33.6001C105 33.6001 104.3 33.8001 103.8 34.1001C103.3 34.4001 103 34.9001 103 35.6001C103 36.2001 103.2 36.7001 103.7 37.0001C104.1 37.4001 104.7 37.6001 105.5 37.6001Z" fill="black"/>
<path d="M114.7 39.6V26.8H117.3V28.4C117.9 27.2 118.8 26.5 120.2 26.5C121 26.5 121.7 26.8 122.3 27.3L121.9 29.7C121.3 29.3 120.6 29.1 119.9 29.1C119.2 29.1 118.6 29.4 118.1 29.9C117.6 30.4 117.3 31.3 117.3 32.5V39.7H114.7V39.6Z" fill="black"/>
<path d="M135.5 39.6001H132.7L128.9 32.3001L127.2 33.9001V39.6001H124.6V22.8001L127.2 21.6001V30.8001L131 26.8001H134.2L130.7 30.4001L135.5 39.6001Z" fill="black"/>
<path d="M34.3 44.9999C34.2 44.8999 34.1 44.6999 34 44.5999C33.6 44.2999 33.2 44.1999 32.7 44.3999C32.5 43.7999 32 43.1999 31.3 43.1999C30.8 43.1999 30.4 43.3999 30.1 43.6999C29.6 42.9999 28.7 42.3999 27.7 42.3999C27.6 42.3999 27.5 42.3999 27.5 42.3999C27.3 41.4999 26.7 40.7999 26 40.2999C24.6 38.7999 24.6 34.3999 24.6 34.3999H21.7H18.8C18.8 34.3999 18.7 38.7999 17.3 40.2999C16.7 40.6999 16.3 41.2999 16.1 41.8999C15.7 41.6999 15.3 41.5999 14.8 41.4999C13.4 41.3999 12.1 42.2999 11.6 43.5999C11.4 43.4999 11.2 43.4999 11 43.4999C10.4 43.4999 9.8 43.7999 9.5 44.2999C9.4 44.1999 9.2 44.1999 9 44.1999C8.6 44.1999 8.2 44.3999 8 44.6999C8.6 45.3999 9.2 45.8999 9.9 46.3999C10.3 46.6999 10.7 46.8999 11.1 47.0999C11.5 47.2999 11.9 47.3999 12.2 47.5999C12.3 47.5999 12.3 47.5999 12.4 47.6999C12.7 47.7999 13.1 47.8999 13.5 47.8999C13.6 47.8999 13.7 47.8999 13.7 47.8999C14.1 47.9999 14.6 47.9999 15 47.9999H27.3C27.7 47.9999 28.1 47.9999 28.6 47.8999H28.7C29.9 47.6999 31.1 47.2999 32.1 46.5999C33.1 46.1999 33.7 45.6999 34.3 44.9999Z" fill="#9BDCD9"/>
<path d="M15.3 48.0999H27.6C28.6 48.0999 29.6 47.8999 30.5 47.5999C30.1 46.7999 28.3 45.5999 27.6 45.2999C25.4 44.4999 26.3 41.9999 24.1 41.9999C22.7 41.9999 22.1 37.8999 22.1 37.8999H21.4C21.4 37.8999 20.9 41.8999 19.5 41.7999C16.7 41.6999 18.5 44.5999 15.2 45.4999C13.1 46.0999 12.4 46.8999 12.3 47.4999C13.2 47.7999 14.2 48.0999 15.3 48.0999Z" fill="#D7F1F0"/>
<path d="M21.8 17.8999C21.8 17.8999 18.3 21.8999 18.7 23.7999C19.3 26.9999 21.5 37.7999 21.5 37.7999H21.8V17.8999Z" fill="#FAB266"/>
<path d="M21.8 18C21.8 18 25.3 22 24.9 23.9C24.3 27.1 22.1 37.9 22.1 37.9H21.8V18Z" fill="#F1645D"/>
</g>
<defs>
<clipPath id="clip0">
<rect width="135" height="48" fill="white"/>
</clipPath>
</defs>
</svg>
