<svg width="96" height="15" viewBox="0 0 96 15" fill="none" xmlns="http://www.w3.org/2000/svg">
<path d="M11.1904 14H8.40723L2.98926 5.1123V14H0.206055V0.492188H2.98926L8.4165 9.39844V0.492188H11.1904V14ZM21.5806 14H18.7974V0.492188H21.5806V14ZM32.8057 0.492188L36.2754 10.2891L39.7266 0.492188H43.3818V14H40.5894V10.3076L40.8677 3.93408L37.2217 14H35.3105L31.6738 3.94336L31.9521 10.3076V14H29.1689V0.492188H32.8057ZM50.8125 14V0.492188H55.5439C57.1829 0.492188 58.4261 0.807617 59.2734 1.43848C60.1208 2.06315 60.5444 2.98161 60.5444 4.19385C60.5444 4.85563 60.3743 5.4401 60.0342 5.94727C59.694 6.44824 59.2209 6.81624 58.6147 7.05127C59.3075 7.22445 59.8517 7.57389 60.2476 8.09961C60.6496 8.62533 60.8506 9.26855 60.8506 10.0293C60.8506 11.3281 60.4362 12.3115 59.6074 12.9795C58.7786 13.6475 57.5973 13.9876 56.0635 14H50.8125ZM53.5957 8.11816V11.7642H55.98C56.6356 11.7642 57.1458 11.6095 57.5107 11.3003C57.8818 10.9849 58.0674 10.5519 58.0674 10.0015C58.0674 8.76449 57.4272 8.13672 56.147 8.11816H53.5957ZM53.5957 6.15137H55.6553C57.0592 6.12663 57.7612 5.56689 57.7612 4.47217C57.7612 3.85986 57.5819 3.42074 57.2231 3.15479C56.8706 2.88265 56.3109 2.74658 55.5439 2.74658H53.5957V6.15137ZM78.1709 0.492188V9.38916C78.1709 10.8674 77.707 12.0363 76.7793 12.896C75.8577 13.7557 74.596 14.1855 72.9941 14.1855C71.417 14.1855 70.1646 13.7681 69.2368 12.9331C68.3091 12.0981 67.8359 10.9508 67.8174 9.49121V0.492188H70.6006V9.40771C70.6006 10.2922 70.8109 10.9385 71.2314 11.3467C71.6582 11.7487 72.2458 11.9497 72.9941 11.9497C74.5589 11.9497 75.3537 11.1271 75.3784 9.48193V0.492188H78.1709ZM92.4575 10.4561C92.4575 9.93034 92.272 9.52832 91.9009 9.25C91.5298 8.96549 90.8618 8.66862 89.897 8.35938C88.9321 8.04395 88.1683 7.7347 87.6055 7.43164C86.0716 6.60286 85.3047 5.48649 85.3047 4.08252C85.3047 3.3527 85.5088 2.70329 85.917 2.13428C86.3314 1.55908 86.922 1.11068 87.689 0.789062C88.4621 0.467448 89.328 0.306641 90.2866 0.306641C91.2515 0.306641 92.1112 0.48291 92.8657 0.835449C93.6203 1.1818 94.2048 1.6735 94.6191 2.31055C95.0397 2.94759 95.25 3.67122 95.25 4.48145H92.4668C92.4668 3.86296 92.272 3.38363 91.8823 3.04346C91.4927 2.6971 90.9453 2.52393 90.2402 2.52393C89.5599 2.52393 89.0311 2.66927 88.6538 2.95996C88.2765 3.24447 88.0879 3.62174 88.0879 4.0918C88.0879 4.53092 88.3075 4.89893 88.7466 5.1958C89.1919 5.49268 89.8444 5.771 90.7041 6.03076C92.2874 6.507 93.4409 7.09766 94.1646 7.80273C94.8882 8.50781 95.25 9.38607 95.25 10.4375C95.25 11.6064 94.8078 12.5249 93.9233 13.1929C93.0389 13.8547 91.8483 14.1855 90.3516 14.1855C89.3125 14.1855 88.3662 13.9969 87.5127 13.6196C86.6592 13.2362 86.0067 12.7135 85.5552 12.0518C85.1099 11.39 84.8872 10.623 84.8872 9.75098H87.6797C87.6797 11.2415 88.5703 11.9868 90.3516 11.9868C91.0133 11.9868 91.5298 11.8538 91.9009 11.5879C92.272 11.3158 92.4575 10.9385 92.4575 10.4561Z" fill="white"/>
</svg>
