<svg width="1400" height="657" viewBox="0 0 1400 657" fill="none" xmlns="http://www.w3.org/2000/svg">
<mask id="mask0" mask-type="alpha" maskUnits="userSpaceOnUse" x="0" y="0" width="1400" height="657">
<rect width="1400" height="657" rx="5" fill="#0D3E62"/>
</mask>
<g mask="url(#mask0)">
<path d="M1109 556.461C1108.98 540.189 1097.32 526.283 1081.35 523.498C1065.38 520.712 1049.73 529.852 1044.25 545.165C1037.72 543.514 1031.01 542.665 1024.27 542.638C1020.37 542.675 1016.48 542.992 1012.62 543.586C1008.56 537.857 1002 534.445 994.999 534.422C990.095 534.421 985.342 536.124 981.546 539.241C972.398 528.77 957.741 525.094 944.764 530.018C931.787 534.941 923.213 547.43 923.247 561.359C923.259 567.865 925.144 574.23 928.676 579.685C918.646 579.32 908.717 581.812 900.038 586.873C887.35 594.215 878.178 606.418 874.626 620.682C865.851 617.671 856.215 618.529 848.105 623.045C839.994 627.56 834.166 635.311 832.063 644.38C812.519 627.698 783.988 627.106 763.775 642.964C743.562 658.822 737.234 686.761 748.631 709.835C760.027 732.909 786.007 744.763 810.814 738.206C835.621 731.649 852.421 708.488 851.024 682.77C864.747 689.07 880.98 685.158 890.361 673.291C907.787 689.538 933.724 692.485 954.324 680.559C955.74 679.69 957.157 678.821 958.494 677.873C980.468 706.054 1017.82 717.153 1051.53 705.52C1085.24 693.888 1107.9 662.08 1107.98 626.291C1108 610.894 1103.75 595.796 1095.7 582.687C1103.94 576.481 1108.85 566.798 1109 556.461Z" fill="white"/>
<path d="M1148 529.171C1148.02 511.581 1162.46 496.549 1182.22 493.538C1201.98 490.527 1221.36 500.407 1228.14 516.96C1236.2 515.18 1244.47 514.263 1252.78 514.228C1257.6 514.262 1262.42 514.604 1267.19 515.253C1272.27 509.068 1280.41 505.387 1289.1 505.347C1295.17 505.346 1301.05 507.186 1305.75 510.556C1317.07 499.237 1335.21 495.264 1351.28 500.586C1367.34 505.908 1377.95 519.409 1377.91 534.465C1377.89 541.499 1375.56 548.379 1371.19 554.276C1383.6 553.881 1395.89 556.575 1406.63 562.046C1422.34 569.982 1433.69 583.173 1438.09 598.593C1442.14 597.395 1446.37 596.761 1450.65 596.714C1469.77 596.775 1486.36 608.319 1490.77 624.637C1514.96 606.603 1550.27 605.964 1575.29 623.106C1600.3 640.248 1608.14 670.449 1594.03 695.392C1579.93 720.335 1547.77 733.148 1517.07 726.06C1486.36 718.972 1465.57 693.936 1467.3 666.136C1450.31 672.945 1430.22 668.717 1418.61 655.889C1397.04 673.451 1364.94 676.637 1339.44 663.745C1337.69 662.806 1335.94 661.866 1334.28 660.842C1307.08 691.305 1260.86 703.303 1219.13 690.728C1177.41 678.154 1149.36 643.77 1149.27 605.082C1149.24 588.439 1154.5 572.118 1164.46 557.947C1154.13 551.148 1148.04 540.495 1148 529.171Z" fill="white"/>
<path d="M-50 661.513C180.959 816.633 640.004 913.962 1140.7 913.971C1400.38 914.997 1654.95 888.747 1871.38 838.628L1882 836.025C1882 836.025 1803.6 726.363 1543.09 695.673C1151.31 649.205 1144.54 450 1144.54 450H1142.73C1142.73 450 1120.14 598.872 845.394 629.482C570.653 660.093 658.995 622.539 452.713 692.597C246.431 762.654 -9.55701 679.5 -47.0628 661.039" fill="#D1EFEE"/>
<path d="M1514.76 858.658C1488.35 829.58 1456.23 806.216 1420.38 790.016C1359.38 762.153 1286.98 796.354 1236.67 771.72C1186.36 747.086 1217.22 699.969 1105.19 648.548C993.16 597.127 929.041 644.602 853.034 682.39C777.028 720.179 735.242 716.711 735.242 716.711H732C939.814 918.044 1249.28 974.146 1515 858.658H1514.76Z" fill="#90D7D4"/>
<path d="M1142 454C1142 454 1165.41 608.647 1449.31 640.445C1733.22 672.243 1642.41 633.233 1855.87 706.008C2069.32 778.783 2337.08 692.568 2375 673.226C2265.31 746.687 2104.26 809.222 1906.89 855C1906.89 855 1792.44 734.692 1558.38 708.794C1146.21 663.884 1142 454 1142 454Z" fill="#90D7D4"/>
<path d="M1127.04 412C1127.04 412 1120.57 422.289 1121.02 425.988C1121.96 432.982 1127.04 453 1127.04 453H1128.62L1133 434.999C1133 434.999 1128.66 427.131 1127.04 412Z" fill="#F9A85B"/>
<path d="M1126.92 453C1126.92 453 1124.53 427.88 1128 412C1128 412 1121.55 422.272 1122.03 425.996C1122.91 433.038 1126.81 452.91 1126.81 452.91" fill="#FFAF87"/>
<path d="M1160.95 412C1160.95 412 1167.43 422.289 1166.98 425.988C1166.16 432.982 1160.95 453 1160.95 453H1159.39L1155 435.067C1155 435.067 1159.34 427.131 1160.95 412Z" fill="#EF5953"/>
<path d="M1161.1 453C1161.1 453 1163.48 427.893 1160 412C1160 412 1166.43 422.289 1165.98 425.988C1165.07 433.027 1161.21 453 1161.21 453" fill="#EF5953"/>
<path d="M1144.02 359C1178.2 404.281 1150.21 446 1150.21 446H1144L1144.02 359Z" fill="#327B7E"/>
<path d="M1144 359C1109.78 404.281 1137.81 446 1137.81 446H1144V359Z" fill="#6DB68C"/>
<path d="M1138.35 446H1145V359C1145 359 1120.68 392.44 1138.57 446" fill="#6DB68C"/>
<path d="M1150.02 446H1144V359C1144 359 1168.32 392.44 1150.43 446H1150.02Z" fill="#327B7E"/>
<path d="M1144 408C1144.08 408 1136.28 417.074 1137.05 421.368C1138.29 428.526 1142.72 453 1142.72 453H1144V408Z" fill="#F9A85B"/>
<path d="M1144 408C1143.93 408 1151.8 417.074 1150.93 421.368C1149.61 428.526 1144.76 453 1144.76 453H1143.5L1144 408Z" fill="#EF5953"/>
</g>
</svg>
