<svg width="100" height="38" viewBox="0 0 100 38" fill="none" xmlns="http://www.w3.org/2000/svg">
<path fill-rule="evenodd" clip-rule="evenodd" d="M19.0476 0C8.52789 0 0 8.50671 0 19C0 29.4934 8.52789 38 19.0476 38C29.5673 38 38.0952 29.4934 38.0952 19C38.0952 8.50671 29.5673 0 19.0476 0Z" fill="#4360DF"/>
<path fill-rule="evenodd" clip-rule="evenodd" d="M19.6873 18.1672C20.6437 18.2665 21.6002 18.3658 22.7761 18.3005C25.9621 18.1233 27.892 16.4921 27.7551 14.054C27.6155 11.5732 25.048 10.0449 22.479 10.1878C18.2924 10.4205 15.2137 14.087 14.867 18.2775C15.4356 18.1447 16.034 18.0653 16.5984 18.034C17.7743 17.9687 18.7308 18.0679 19.6873 18.1672ZM11.4801 23.5904C11.6122 25.8644 14.0447 27.2654 16.4786 27.1344C20.4448 26.921 23.3615 23.5601 23.6899 19.7188C23.1512 19.8406 22.5843 19.9134 22.0496 19.9421C20.9356 20.002 20.0294 19.911 19.1232 19.8199C18.2171 19.7289 17.3109 19.6379 16.1969 19.6979C13.1787 19.8602 11.3502 21.3554 11.4801 23.5904Z" fill="white"/>
<path d="M45.5078 22.1549H48.2611C48.2611 22.6201 48.3926 22.9541 48.6557 23.1569C48.9188 23.3596 49.2566 23.461 49.6692 23.461C50.0099 23.461 50.288 23.3984 50.5032 23.2732C50.7244 23.142 50.835 22.9303 50.835 22.638C50.835 22.465 50.7872 22.3249 50.6916 22.2175C50.6019 22.1042 50.4614 22.0058 50.2701 21.9223C50.0787 21.8329 49.8336 21.7434 49.5346 21.6539C49.2357 21.5645 48.8769 21.4512 48.4584 21.314C48.0818 21.1947 47.726 21.0725 47.3911 20.9472C47.0623 20.816 46.7724 20.655 46.5212 20.4641C46.2701 20.2733 46.0728 20.0407 45.9293 19.7663C45.7918 19.492 45.723 19.152 45.723 18.7465C45.723 18.2813 45.8157 17.8788 46.0011 17.5388C46.1864 17.1988 46.4465 16.9185 46.7814 16.6978C47.1161 16.4772 47.5167 16.3132 47.9831 16.2058C48.4494 16.0925 48.9637 16.0358 49.5256 16.0358C50.2133 16.0358 50.8052 16.1134 51.3014 16.2684C51.7977 16.4235 52.2042 16.6352 52.5211 16.9036C52.838 17.172 53.0711 17.4881 53.2207 17.8519C53.3761 18.2157 53.4538 18.6063 53.4538 19.0238H50.6826C50.6826 18.66 50.5869 18.3767 50.3956 18.1739C50.2103 17.9712 49.9262 17.8698 49.5436 17.8698C49.2506 17.8698 48.9995 17.9354 48.7903 18.0666C48.581 18.1919 48.4764 18.3827 48.4764 18.6392C48.4764 18.8121 48.5242 18.9523 48.6199 19.0596C48.7215 19.161 48.868 19.2534 49.0593 19.3369C49.2506 19.4204 49.4868 19.5069 49.7678 19.5964C50.0488 19.6799 50.3717 19.7813 50.7364 19.9005C51.131 20.0079 51.4987 20.1271 51.8395 20.2584C52.1803 20.3896 52.4792 20.5506 52.7364 20.7414C52.9994 20.9264 53.2057 21.1619 53.3552 21.4482C53.5106 21.7285 53.5884 22.0863 53.5884 22.5217C53.5884 23.0346 53.4807 23.473 53.2655 23.8368C53.0503 24.1946 52.7603 24.4868 52.3956 24.7135C52.0368 24.9401 51.6183 25.1011 51.14 25.1965C50.6617 25.2979 50.1594 25.3487 49.6333 25.3487C48.3239 25.3487 47.3075 25.0773 46.584 24.5345C45.8665 23.9859 45.5078 23.1927 45.5078 22.1549Z" fill="white"/>
<path d="M54.2878 18.3619V16.2774H55.678V13.6562H58.4761V16.2774H60.494V18.3619H58.4761V21.5198C58.4761 21.8478 58.506 22.1102 58.5658 22.307C58.6256 22.4979 58.7093 22.65 58.8169 22.7633C58.9305 22.8706 59.0651 22.9422 59.2205 22.978C59.3819 23.0078 59.5613 23.0227 59.7586 23.0227C59.8782 23.0227 60.0306 23.0197 60.216 23.0137C60.4013 23.0019 60.5627 22.984 60.7003 22.9601V25.1071C60.491 25.1429 60.228 25.1757 59.911 25.2055C59.6002 25.2354 59.2325 25.2503 58.808 25.2503C58.4791 25.2503 58.1323 25.2264 57.7676 25.1787C57.4029 25.131 57.0651 25.0058 56.7542 24.803C56.4433 24.6002 56.1862 24.2901 55.9829 23.8726C55.7796 23.4491 55.678 22.8706 55.678 22.137V18.3619H54.2878Z" fill="white"/>
<path d="M61.5074 20.6878C61.5074 20.0258 61.6121 19.4115 61.8213 18.8449C62.0366 18.2783 62.3325 17.7923 62.7092 17.3868C63.0919 16.9752 63.5373 16.6502 64.0455 16.4116C64.5537 16.1731 65.1038 16.0538 65.6957 16.0538C66.3594 16.0538 66.9334 16.1939 67.4176 16.4742C67.9079 16.7545 68.2755 17.1094 68.5211 17.5388V16.2774H71.3279V25.1071H68.5211V23.8637C68.2993 24.2692 67.9438 24.6151 67.4535 24.9014C66.9632 25.1877 66.3773 25.3308 65.6957 25.3308C65.1098 25.3308 64.5597 25.2115 64.0455 24.9729C63.5373 24.7344 63.0919 24.4094 62.7092 23.9978C62.3325 23.5863 62.0366 23.0973 61.8213 22.5307C61.6121 21.9641 61.5074 21.3498 61.5074 20.6878ZM64.2966 20.6878C64.2966 20.9919 64.3474 21.2842 64.4491 21.5645C64.5567 21.8389 64.7002 22.0775 64.8796 22.2802C65.0649 22.477 65.2862 22.638 65.5432 22.7633C65.8004 22.8826 66.0873 22.9422 66.4043 22.9422C66.7211 22.9422 67.0081 22.8826 67.2652 22.7633C67.5283 22.638 67.7495 22.477 67.9289 22.2802C68.1142 22.0775 68.2578 21.8389 68.3591 21.5645C68.4666 21.2902 68.5211 20.9979 68.5211 20.6878C68.5211 20.3837 68.4666 20.0974 68.3591 19.829C68.2578 19.5606 68.1142 19.322 67.9289 19.1133C67.7495 18.9046 67.5313 18.7406 67.2742 18.6213C67.017 18.502 66.7271 18.4423 66.4043 18.4423C66.0873 18.4423 65.8004 18.502 65.5432 18.6213C65.2862 18.7406 65.0649 18.9046 64.8796 19.1133C64.7002 19.322 64.5567 19.5606 64.4491 19.829C64.3474 20.0974 64.2966 20.3837 64.2966 20.6878Z" fill="white"/>
<path d="M72.8347 18.3619V16.2774H74.2245V13.6562H77.0232V16.2774H79.0408V18.3619H77.0232V21.5198C77.0232 21.8478 77.0531 22.1102 77.1123 22.307C77.1721 22.4979 77.2558 22.65 77.364 22.7633C77.4776 22.8706 77.6116 22.9422 77.7674 22.978C77.9286 23.0078 78.1082 23.0227 78.3055 23.0227C78.4252 23.0227 78.5776 23.0197 78.7626 23.0137C78.9483 23.0019 79.1095 22.984 79.247 22.9601V25.1071C79.0381 25.1429 78.7749 25.1757 78.4578 25.2055C78.147 25.2354 77.7789 25.2503 77.3544 25.2503C77.0259 25.2503 76.6789 25.2264 76.3143 25.1787C75.9497 25.131 75.6116 25.0058 75.3007 24.803C74.9898 24.6002 74.7327 24.2901 74.53 23.8726C74.3266 23.4491 74.2245 22.8706 74.2245 22.137V18.3619H72.8347Z" fill="white"/>
<path d="M80.6375 21.5198V16.2774H83.4266V20.8041C83.4266 21.4362 83.5402 21.9522 83.7674 22.3518C83.9946 22.7453 84.4007 22.9422 84.9871 22.9422C85.5728 22.9422 86.0034 22.7424 86.2783 22.3428C86.5592 21.9372 86.7 21.3915 86.7 20.7057V16.2774H89.5068V25.1071H86.7V23.8457C86.4544 24.3109 86.081 24.6747 85.5789 24.9371C85.0762 25.1995 84.4755 25.3308 83.7762 25.3308C83.166 25.3308 82.664 25.2354 82.2694 25.0445C81.881 24.8537 81.564 24.6121 81.3191 24.3198C81.0375 23.9799 80.8524 23.5863 80.7626 23.139C80.6789 22.6917 80.6375 22.1519 80.6375 21.5198Z" fill="white"/>
<path d="M91.3184 22.1549H94.0721C94.0721 22.6201 94.2034 22.9541 94.4667 23.1569C94.7292 23.3596 95.0673 23.461 95.4796 23.461C95.8204 23.461 96.0986 23.3984 96.3143 23.2732C96.5354 23.142 96.6456 22.9303 96.6456 22.638C96.6456 22.465 96.598 22.3249 96.502 22.2175C96.4129 22.1042 96.2721 22.0058 96.0809 21.9223C95.8898 21.8329 95.6442 21.7434 95.3456 21.6539C95.0463 21.5645 94.6878 21.4512 94.2694 21.314C93.8925 21.1947 93.5367 21.0725 93.202 20.9472C92.8728 20.816 92.583 20.655 92.332 20.4641C92.0809 20.2733 91.8837 20.0407 91.7401 19.7663C91.6027 19.492 91.534 19.152 91.534 18.7465C91.534 18.2813 91.6265 17.8788 91.8116 17.5388C91.9973 17.1988 92.2571 16.9185 92.5918 16.6978C92.9272 16.4772 93.3272 16.3132 93.7939 16.2058C94.2599 16.0925 94.7741 16.0358 95.3367 16.0358C96.0238 16.0358 96.6156 16.1134 97.1122 16.2684C97.6082 16.4235 98.015 16.6352 98.332 16.9036C98.649 17.172 98.8816 17.4881 99.0313 17.8519C99.1871 18.2157 99.2646 18.6063 99.2646 19.0238H96.4932C96.4932 18.66 96.398 18.3767 96.2061 18.1739C96.0211 17.9712 95.7367 17.8698 95.3544 17.8698C95.0612 17.8698 94.8102 17.9354 94.6007 18.0666C94.3918 18.1919 94.2871 18.3827 94.2871 18.6392C94.2871 18.8121 94.3347 18.9523 94.4306 19.0596C94.532 19.161 94.6789 19.2534 94.8701 19.3369C95.0612 19.4204 95.2973 19.5069 95.5782 19.5964C95.8599 19.6799 96.1823 19.7813 96.5469 19.9005C96.9415 20.0079 97.3095 20.1271 97.6503 20.2584C97.9912 20.3896 98.2898 20.5506 98.5469 20.7414C98.8102 20.9264 99.0163 21.1619 99.166 21.4482C99.3211 21.7285 99.3993 22.0863 99.3993 22.5217C99.3993 23.0346 99.2912 23.473 99.0762 23.8368C98.8612 24.1946 98.5708 24.4868 98.2061 24.7135C97.8476 24.9401 97.4293 25.1011 96.951 25.1965C96.4721 25.2979 95.9701 25.3487 95.4442 25.3487C94.1347 25.3487 93.1184 25.0773 92.3946 24.5345C91.6775 23.9859 91.3184 23.1927 91.3184 22.1549Z" fill="white"/>
</svg>
